<?xml version="1.0" encoding="utf-8"?>
<!-- Generator: Adobe Illustrator 14.0.0, SVG Export Plug-In . SVG Version: 6.00 Build 43363)  -->
<!DOCTYPE svg PUBLIC "-//W3C//DTD SVG 1.1//EN" "http://www.w3.org/Graphics/SVG/1.1/DTD/svg11.dtd">
<svg version="1.1" xmlns="http://www.w3.org/2000/svg" xmlns:xlink="http://www.w3.org/1999/xlink" x="0px" y="0px"
	 width="121.854px" height="42px" viewBox="0 0 121.854 42" enable-background="new 0 0 121.854 42" xml:space="preserve">
<g id="图层_1">
	<polygon fill="#FFFFFF" points="54.304,1.85 58.652,1.85 58.652,0.236 48.02,0.236 48.02,1.85 52.349,1.85 52.349,11.095 
		54.304,11.095 	"/>
	<polygon fill="#FFFFFF" points="69.072,8.995 62.914,8.995 62.914,6.156 68.714,6.156 68.714,4.552 62.914,4.552 62.914,1.85 
		69.072,1.85 69.072,0.236 60.968,0.236 60.968,10.599 69.072,10.599 	"/>
	<path fill="#FFFFFF" d="M73.847,4.405c0-0.997-0.026-1.652-0.078-1.966h0.058c0.129,0.302,0.302,0.607,0.516,0.915l5.372,7.742
		h2.108c-0.03-0.044-0.055-0.081-0.087-0.128L74.363,0.236h-2.442v10.859h1.926V4.405z"/>
	<path fill="#FFFFFF" d="M84.228,0.236h-1.926v9.653c0,0.47,0.008,0.871,0.023,1.207h1.903V0.236z"/>
	<path fill="#FFFFFF" d="M96.679,10.687c0-0.822-0.295-1.562-0.885-2.221c-0.59-0.658-1.625-1.317-3.104-1.976
		c-1.342-0.617-2.215-1.103-2.616-1.459c-0.402-0.357-0.604-0.819-0.604-1.387c0-0.641,0.29-1.141,0.87-1.5
		c0.581-0.359,1.333-0.539,2.253-0.539c1.388,0,2.535,0.293,3.443,0.879V0.507C95.337,0.169,94.237,0,92.74,0
		c-1.531,0-2.799,0.341-3.804,1.024c-1.005,0.684-1.509,1.607-1.509,2.774c0,0.773,0.241,1.46,0.721,2.062
		c0.479,0.601,1.475,1.252,2.986,1.953c1.089,0.502,1.832,0.874,2.227,1.115s0.708,0.52,0.934,0.833
		c0.227,0.315,0.341,0.668,0.341,1.061c0,0.097-0.017,0.183-0.027,0.273h2.028C96.65,10.958,96.679,10.831,96.679,10.687z"/>
	<path fill="#FFFFFF" d="M100.687,7.278c0-1.686,0.477-3.048,1.43-4.087s2.199-1.56,3.736-1.56c1.563,0,2.792,0.493,3.691,1.478
		c0.899,0.984,1.347,2.383,1.347,4.196c0,1.585-0.391,2.836-1.131,3.79h2.257c0.613-1.117,0.927-2.449,0.927-4.007
		c0-2.103-0.638-3.81-1.916-5.122C109.75,0.656,108.063,0,105.968,0c-2.25,0-4.033,0.671-5.35,2.012
		c-1.317,1.341-1.975,3.145-1.975,5.411c0,1.401,0.293,2.622,0.866,3.672h2.376C101.1,10.104,100.687,8.84,100.687,7.278z"/>
	<g>
		<path fill="#FFFFFF" d="M55.024,33.593l-4.984,0.055v-2.372l4.984,0.056v-1.797l-6.244,0.056v-2.372l6.244,0.056v-0.686
			l-0.074-2.297h2.649c-0.049,1.025-0.074,2.02-0.074,2.983l6.002-0.056v2.372l-6.002-0.056v1.797l4.669-0.056v2.372l-4.669-0.055
			v1.834l6.596-0.056v2.372l-6.596-0.056c0.012,1.532,0.037,2.78,0.074,3.743H54.95l0.074-3.743l-7.004,0.056v-2.372l7.004,0.056
			V33.593z"/>
		<path fill="#FFFFFF" d="M67.66,28.813c1.37,0.988,2.279,1.655,2.723,2.001c-0.37,0.494-0.748,1.137-1.131,1.927
			c-0.852-0.864-1.778-1.593-2.779-2.187C66.93,30.035,67.326,29.455,67.66,28.813z M68.567,33.852
			c0.839,0.618,1.489,1.038,1.946,1.26c-0.469,2.087-1.148,4.211-2.039,6.374c-0.494-0.617-1.111-1.192-1.853-1.723
			C67.66,38.12,68.308,36.149,68.567,33.852z M68.271,24.606c0.086-0.136,0.173-0.26,0.259-0.371
			c0.989,0.692,1.89,1.371,2.705,2.038c-0.543,0.778-0.944,1.408-1.204,1.89c-0.779-0.79-1.705-1.538-2.779-2.242
			C67.548,25.614,67.888,25.175,68.271,24.606z M70.438,31.869v-1.908l3.316,0.037V28.33l-2.445,0.038v-1.909l2.445,0.037
			l-0.037-2.279h2.112l-0.037,2.279h2.094c0-0.58-0.019-1.334-0.056-2.26h2.094l-0.037,2.26l3.057-0.037v1.909l-3.057-0.038v1.668
			l3.873-0.037v1.908l-2.965-0.037c0.827,1.05,1.952,1.798,3.373,2.242c-0.111,0.161-0.333,0.445-0.667,0.853
			c-0.186,0.309-0.408,0.648-0.667,1.019c-0.802-0.494-1.631-1.081-2.482-1.761c-0.05,0.63-0.05,1.927,0,3.892l-5.207-0.037v0.722
			c0,0.284,0.093,0.451,0.278,0.5c0.124,0.061,0.408,0.111,0.852,0.148l1.946,0.019c1.729,0,2.711-0.111,2.945-0.334
			c0.335-0.272,0.501-0.871,0.501-1.797c0.617,0.419,1.333,0.729,2.149,0.926c-0.285,1.643-0.779,2.612-1.483,2.909
			c-0.247,0.086-0.599,0.154-1.057,0.204c-4.187,0-6.527-0.056-7.021-0.167c-0.458-0.124-0.761-0.352-0.909-0.685
			c-0.012-0.025-0.019-0.044-0.019-0.056c-0.148-0.322-0.222-2.248-0.222-5.781c-0.691,0.519-1.315,0.951-1.872,1.297
			c-0.531-0.791-1.019-1.408-1.463-1.853c1.481-0.321,2.742-1.075,3.779-2.261L70.438,31.869z M79.425,33.241
			c-0.37-0.495-0.705-0.963-1.001-1.409h-2.279l-1.314,1.409H79.425z M78.368,36.316v-1.297h-3.224v1.297H78.368z M75.793,28.33
			v1.668h2.094V28.33H75.793z"/>
		<path fill="#FFFFFF" d="M89.356,38.465l-1.168,0.333l-1.926,0.667c-0.137-0.396-0.259-0.76-0.371-1.093
			c-0.149-0.346-0.322-0.748-0.52-1.205l2.242-0.407c0.531-0.124,1.112-0.266,1.742-0.427v-2.482h-3.669l-0.185-1.371
			c0.42-0.815,0.761-1.525,1.02-2.131c0.259-0.593,0.506-1.248,0.741-1.964c-0.333,0-0.908,0.019-1.724,0.056v-2.187l2.353,0.074
			c0.111-0.383,0.204-0.729,0.278-1.038c0.086-0.346,0.173-0.785,0.26-1.315c1.432,0.37,2.21,0.563,2.335,0.574
			c-0.396,1-0.612,1.594-0.649,1.779h1.372c0.519-0.037,1.037-0.062,1.556-0.074v2.187l-1.574-0.056H89.43l-1.26,3.409h1.187
			l-0.074-2.649h2.297c-0.049,0.458-0.08,0.927-0.092,1.408v1.241h1.481v-1.76l3.002,0.056c0.148-0.593,0.265-1.21,0.352-1.853
			h-1.557c-0.444,0.013-0.889,0.025-1.333,0.037V26.2c0.432,0.012,0.871,0.024,1.315,0.037h1.872
			c0.111-0.642,0.204-1.371,0.278-2.187c0.408,0.123,0.759,0.204,1.057,0.241c0.321,0.049,0.759,0.092,1.315,0.129l-0.389,1.816
			h2.26c0.469-0.025,0.932-0.037,1.389-0.037v2.075l-3.964-0.037l-0.333,1.853h2.668l1.946-0.056v2.205l-1.964-0.074h-3.002
			c-0.086,0.395-0.167,0.785-0.241,1.167h4.225l0.946,1.371l-1.631,2.131c-0.42,0.531-0.927,1.13-1.52,1.797l1.279,0.945
			l1.019,0.778l-1.037,1c-0.161,0.186-0.241,0.284-0.241,0.297c-0.074,0.111-0.167,0.222-0.278,0.333
			c-0.927-0.778-1.877-1.538-2.854-2.279c-1.062-0.766-2.298-1.612-3.705-2.539c0.543-0.494,1.056-1.019,1.537-1.575l2.613,1.853
			c0.333-0.407,0.611-0.76,0.833-1.056c0.222-0.321,0.5-0.722,0.833-1.205h-3.576c-0.458,0.013-0.908,0.025-1.353,0.037
			c0.235-0.691,0.414-1.26,0.537-1.704c0.124-0.42,0.229-0.877,0.316-1.371h-2.316v1.741c-0.482-0.024-1.075-0.037-1.779-0.037
			v1.945c0.839-0.209,1.592-0.426,2.26-0.648c-0.086,0.531-0.129,1.093-0.129,1.686v0.426c-0.086,0.024-0.798,0.222-2.131,0.592
			v1.872l0.092,1.816h-2.297l0.074-1.853V38.465z"/>
		<path fill="#FFFFFF" d="M106.92,32.61h-1.204c-0.371,0.013-0.741,0.025-1.112,0.037v-2.112l1.964,0.037l2.557-0.037
			c-0.025,0.47-0.037,0.933-0.037,1.39v5.114c0.099,0.049,0.229,0.148,0.389,0.296c0.321,0.248,0.613,0.5,0.872,0.76
			c0.531,0.432,1.092,0.722,1.685,0.87c0.964,0.235,2.038,0.353,3.225,0.353c1.716-0.013,3.297-0.099,4.743-0.26
			c0.531-0.074,1.148-0.173,1.853-0.296c-0.285,0.939-0.464,1.797-0.538,2.575l-4.929,0.074c-2.223,0-3.76-0.074-4.613-0.222
			c-0.926-0.161-1.722-0.574-2.39-1.242c-0.259-0.271-0.519-0.5-0.778-0.685c-0.136-0.099-0.296-0.148-0.481-0.148
			c-0.407,0.012-0.896,0.34-1.464,0.982l-1.037,1.204l-0.574-1.574c-0.137-0.296-0.298-0.649-0.483-1.057
			c0.321-0.123,0.594-0.241,0.816-0.352c0.272-0.148,0.63-0.371,1.074-0.667c0.148-0.099,0.303-0.191,0.463-0.278V32.61z
			 M109.849,27.07l-0.427,0.445c-0.457,0.555-0.871,1.025-1.241,1.408c-0.481-0.593-0.927-1.112-1.335-1.556l-1.518-1.501
			c0.333-0.234,0.629-0.463,0.889-0.686c0.284-0.222,0.58-0.5,0.889-0.834l1.927,1.891L109.849,27.07z M112.146,29.665h6.799
			l2.316-0.056v2.148l-2.316-0.074h-3.668l0.741,0.5l-2.705,3.576L118,35.519c-0.383-0.592-0.908-1.265-1.576-2.019
			c0.383-0.173,0.711-0.321,0.983-0.445c0.309-0.148,0.667-0.352,1.074-0.611l3.298,4.502c-0.754,0.519-1.39,1.019-1.908,1.5
			c-0.223-0.395-0.434-0.748-0.631-1.056l-3.187,0.186l-3.187,0.24l-1.594,0.223l-1.056-2.224c0.704-0.482,1.395-1.167,2.075-2.057
			c0.531-0.741,0.951-1.433,1.259-2.075h-1.407l-2.297,0.074v-2.148L112.146,29.665z M110.978,25.014l5.911,0.037l3.168-0.037v2.093
			l-5.855-0.037l-3.224,0.037V25.014z"/>
	</g>
	<g>
		<path fill="#FFFFFF" d="M50.826,18.765c0,0.835-0.185,1.48-0.557,1.936s-0.876,0.684-1.515,0.684
			c-0.296,0-0.542-0.042-0.734-0.125v-0.869c0.192,0.133,0.436,0.2,0.729,0.2c0.761,0,1.141-0.609,1.141-1.826v-4.396h0.936V18.765z
			"/>
		<path fill="#FFFFFF" d="M58.141,21.268h-1.033l-0.74-1.888h-3.016l-0.697,1.888h-1.034l2.759-6.899h1.001L58.141,21.268z
			 M56.078,18.6l-1.094-2.868c-0.035-0.092-0.072-0.252-0.112-0.481h-0.023c-0.035,0.208-0.073,0.369-0.118,0.481L53.646,18.6
			H56.078z"/>
		<path fill="#FFFFFF" d="M60.123,18.689v2.579h-0.935v-6.899h2.057c0.783,0,1.39,0.18,1.822,0.539
			c0.432,0.359,0.648,0.873,0.648,1.541c0,0.677-0.253,1.226-0.758,1.646c-0.505,0.42-1.137,0.619-1.894,0.595H60.123z
			 M60.123,15.153v2.752h0.865c0.57,0,1.004-0.123,1.3-0.368c0.296-0.245,0.444-0.596,0.444-1.053c0-0.888-0.552-1.331-1.656-1.331
			H60.123z"/>
		<path fill="#FFFFFF" d="M69.94,21.268h-1.034l-0.739-1.888h-3.016l-0.698,1.888H63.42l2.759-6.899h1.001L69.94,21.268z
			 M67.877,18.6l-1.094-2.868c-0.035-0.092-0.072-0.252-0.113-0.481h-0.023c-0.034,0.208-0.073,0.369-0.117,0.481L65.445,18.6
			H67.877z"/>
		<path fill="#FFFFFF" d="M76.904,21.268h-1.108l-3.643-5.367c-0.103-0.151-0.186-0.301-0.249-0.45h-0.028
			c0.026,0.154,0.039,0.477,0.039,0.967v4.85h-0.926v-6.899h1.173l3.546,5.273c0.168,0.25,0.268,0.408,0.299,0.477h0.02
			c-0.032-0.196-0.047-0.531-0.047-1.007v-4.743h0.926V21.268z"/>
		<rect x="-0.625" fill="#FFFFFF" width="42.667" height="41.986"/>
	</g>
	<rect x="0.043" fill="#C6000D" width="42" height="3.442"/>
	<rect x="7.066" y="7.712" fill="#C6000D" width="34.977" height="3.442"/>
	<rect x="7.066" y="15.423" fill="#C6000D" width="27.679" height="3.443"/>
	<rect x="7.066" y="23.135" fill="#C6000D" width="27.679" height="3.443"/>
	<rect x="38.6" fill="#C6000D" width="3.443" height="41.986"/>
	<rect x="0.043" fill="#C6000D" width="3.442" height="41.986"/>
	<rect x="7.066" y="7.712" fill="#C6000D" width="3.442" height="18.865"/>
	<rect x="31.302" y="15.423" fill="#C6000D" width="3.442" height="18.866"/>
	<rect x="0.181" y="30.845" fill="#C6000D" width="34.563" height="3.444"/>
	<rect x="0.043" y="38.558" fill="#C6000D" width="42" height="3.442"/>
</g>
<g id="图层_2">
</g>
</svg>
