<?xml version="1.0" encoding="utf-8"?>
<!-- Generator: Adobe Illustrator 14.0.0, SVG Export Plug-In . SVG Version: 6.00 Build 43363)  -->
<!DOCTYPE svg PUBLIC "-//W3C//DTD SVG 1.1//EN" "http://www.w3.org/Graphics/SVG/1.1/DTD/svg11.dtd">
<svg version="1.1" id="图层_1" xmlns="http://www.w3.org/2000/svg" xmlns:xlink="http://www.w3.org/1999/xlink" x="0px" y="0px"
	 width="43.087px" height="36px" viewBox="0 0 43.087 36" enable-background="new 0 0 43.087 36" xml:space="preserve">
<path fill="#FFFFFF" stroke="#FFFFFF" stroke-width="2" d="M32.367,30.475c0,0.601-0.551,1.086-1.229,1.086H13.656
	c-0.679,0-1.229-0.485-1.229-1.086V5.431c0-0.6,0.551-1.086,1.229-1.086h17.482c0.678,0,1.229,0.486,1.229,1.086V30.475z"/>
<path fill="#FFFFFF" stroke="#FFFFFF" stroke-width="2" d="M29.408,10.892c0,0.354-0.469,0.642-1.048,0.642H16.401
	c-0.578,0-1.049-0.288-1.049-0.642V8.704c0-0.354,0.471-0.642,1.049-0.642H28.36c0.579,0,1.048,0.287,1.048,0.642V10.892z"/>
<path fill="#FFFFFF" stroke="#FFFFFF" d="M19.246,17.097c0,0.433-0.353,0.783-0.786,0.783h-3.051c-0.434,0-0.786-0.35-0.786-0.783
	V14.43c0-0.432,0.354-0.782,0.786-0.782h3.051c0.435,0,0.786,0.351,0.786,0.782V17.097z"/>
<path fill="#FFFFFF" stroke="#FFFFFF" d="M19.246,22.131c0,0.432-0.353,0.783-0.786,0.783h-3.051c-0.434,0-0.786-0.352-0.786-0.783
	v-2.667c0-0.433,0.354-0.782,0.786-0.782h3.051c0.435,0,0.786,0.35,0.786,0.782V22.131z"/>
<path fill="#FFFFFF" stroke="#FFFFFF" d="M19.246,27.375c0,0.432-0.353,0.781-0.786,0.781h-3.051c-0.434,0-0.786-0.35-0.786-0.781
	v-2.668c0-0.432,0.354-0.783,0.786-0.783h3.051c0.435,0,0.786,0.352,0.786,0.783V27.375z"/>
<path fill="#FFFFFF" stroke="#FFFFFF" d="M24.98,17.097c0,0.433-0.353,0.783-0.786,0.783h-3.051c-0.436,0-0.787-0.35-0.787-0.783
	V14.43c0-0.432,0.353-0.782,0.787-0.782h3.051c0.435,0,0.786,0.351,0.786,0.782V17.097z"/>
<path fill="#FFFFFF" stroke="#FFFFFF" d="M24.98,22.131c0,0.432-0.353,0.783-0.786,0.783h-3.051c-0.436,0-0.787-0.352-0.787-0.783
	v-2.667c0-0.433,0.353-0.782,0.787-0.782h3.051c0.435,0,0.786,0.35,0.786,0.782V22.131z"/>
<path fill="#FFFFFF" stroke="#FFFFFF" d="M24.98,27.375c0,0.432-0.353,0.781-0.786,0.781h-3.051c-0.436,0-0.787-0.35-0.787-0.781
	v-2.668c0-0.432,0.353-0.783,0.787-0.783h3.051c0.435,0,0.786,0.352,0.786,0.783V27.375z"/>
<path fill="#FFFFFF" stroke="#FFFFFF" d="M30.491,17.097c0,0.433-0.352,0.783-0.786,0.783h-3.051c-0.434,0-0.786-0.35-0.786-0.783
	V14.43c0-0.432,0.354-0.782,0.786-0.782h3.051c0.436,0,0.786,0.351,0.786,0.782V17.097z"/>
<path fill="#FFFFFF" stroke="#FFFFFF" d="M30.491,22.131c0,0.432-0.352,0.783-0.786,0.783h-3.051c-0.434,0-0.786-0.352-0.786-0.783
	v-2.667c0-0.433,0.354-0.782,0.786-0.782h3.051c0.436,0,0.786,0.35,0.786,0.782V22.131z"/>
<path fill="#FFFFFF" stroke="#FFFFFF" d="M30.491,27.375c0,0.432-0.352,0.781-0.786,0.781h-3.051c-0.434,0-0.786-0.35-0.786-0.781
	v-2.668c0-0.432,0.354-0.783,0.786-0.783h3.051c0.436,0,0.786,0.352,0.786,0.783V27.375z"/>
</svg>
