<?xml version="1.0" encoding="utf-8"?>
<!-- Generator: Adobe Illustrator 14.0.0, SVG Export Plug-In . SVG Version: 6.00 Build 43363)  -->
<!DOCTYPE svg PUBLIC "-//W3C//DTD SVG 1.1//EN" "http://www.w3.org/Graphics/SVG/1.1/DTD/svg11.dtd">
<svg version="1.1" id="图层_1" xmlns="http://www.w3.org/2000/svg" xmlns:xlink="http://www.w3.org/1999/xlink" x="0px" y="0px"
	 width="43.087px" height="36px" viewBox="0 0 43.087 36" enable-background="new 0 0 43.087 36" xml:space="preserve">
<path fill="none" stroke="#FFFFFF" d="M3.76,15.457c0,0-2.143-1.895-0.411-3.542c0,0,2.636-2.06,3.542,3.377l2.06,13.595h13.593"/>
<circle fill="none" stroke="#FFFFFF" cx="9.736" cy="30.527" r="1.607"/>
<circle fill="none" stroke="#FFFFFF" cx="22.256" cy="30.527" r="1.606"/>
<line fill="none" stroke="#FFFFFF" x1="7.166" y1="16.198" x2="25.159" y2="16.198"/>
<line fill="none" stroke="#FFFFFF" x1="7.698" y1="19.659" x2="24.191" y2="19.659"/>
<line fill="none" stroke="#FFFFFF" x1="8.043" y1="22.623" x2="23.74" y2="22.542"/>
<line fill="none" stroke="#FFFFFF" x1="8.456" y1="25.178" x2="23.286" y2="25.178"/>
<line fill="none" stroke="#FFFFFF" x1="11.916" y1="16.28" x2="11.916" y2="25.343"/>
<line fill="none" stroke="#FFFFFF" x1="15.624" y1="16.198" x2="15.624" y2="25.178"/>
<line fill="none" stroke="#FFFFFF" x1="19.908" y1="16.198" x2="19.908" y2="25.178"/>
<line fill="none" stroke="#FFFFFF" x1="24.896" y1="16.235" x2="23.038" y2="25.178"/>
<ellipse fill="none" stroke="#FFFFFF" cx="31.822" cy="12.696" rx="7.529" ry="8.115"/>
<path fill="none" stroke="#FFFFFF" d="M29.713,8.7c0,0,3.954-2.389,4.447,1.319c0,0,0.165,2.966-2.8,3.46l0.081,1.895"/>
<path fill="#666766" stroke="#FFFFFF" d="M32.266,17.434c0,0.364-0.258,0.659-0.578,0.659c-0.316,0-0.575-0.295-0.575-0.659
	c0-0.364,0.259-0.66,0.575-0.66C32.009,16.774,32.266,17.07,32.266,17.434z"/>
<line fill="none" stroke="#FFFFFF" x1="23.797" y1="20.699" x2="30.575" y2="20.699"/>
</svg>
