<?xml version="1.0" encoding="utf-8"?>
<!-- Generator: Adobe Illustrator 14.0.0, SVG Export Plug-In . SVG Version: 6.00 Build 43363)  -->
<!DOCTYPE svg PUBLIC "-//W3C//DTD SVG 1.1//EN" "http://www.w3.org/Graphics/SVG/1.1/DTD/svg11.dtd">
<svg version="1.1" id="图层_1" xmlns="http://www.w3.org/2000/svg" xmlns:xlink="http://www.w3.org/1999/xlink" x="0px" y="0px"
	 width="43.087px" height="36px" viewBox="0 0 43.087 36" enable-background="new 0 0 43.087 36" xml:space="preserve">
<g>
	<polygon fill="none" stroke="#FFFFFF" stroke-linecap="round" stroke-linejoin="round" points="5.66,22.08 5.66,28.343 
		13.857,31.62 26.307,28.884 26.307,22.697 14.135,24.947 	"/>
	<polyline fill="none" stroke="#FFFFFF" stroke-linecap="round" stroke-linejoin="round" points="5.66,22.08 2.559,16.226 
		10.303,18.186 14.135,24.947 14.135,31.559 	"/>
	<polyline fill="none" stroke="#FFFFFF" stroke-linecap="round" stroke-linejoin="round" points="14.135,24.766 16.229,18.932 
		28.968,17.903 26.307,22.697 	"/>
	<polyline fill="none" stroke="#FFFFFF" stroke-linecap="round" stroke-linejoin="round" points="26.365,22.594 31.486,18.186 
		25.562,15.292 22.529,18.139 	"/>
	<polyline fill="none" stroke="#FFFFFF" stroke-linecap="round" stroke-linejoin="round" points="4.611,16.459 21.551,14.78 
		22.216,18.448 	"/>
	<polygon fill="none" stroke="#FFFFFF" stroke-linecap="round" stroke-linejoin="round" points="30.827,7.036 32.702,7.276 
		31.37,8.62 31.721,10.479 30.033,9.626 28.373,10.536 28.661,8.665 27.284,7.368 29.152,7.064 29.961,5.354 	"/>
	<polygon fill="none" stroke="#FFFFFF" stroke-width="0.5669" stroke-linecap="round" stroke-linejoin="round" points="2.971,6.652 
		3.35,6.599 3.162,6.932 3.33,7.275 2.955,7.2 2.68,7.466 2.637,7.086 2.298,6.907 2.646,6.747 2.712,6.37 	"/>
	<polygon fill="none" stroke="#FFFFFF" stroke-width="0.5669" stroke-linecap="round" stroke-linejoin="round" points="9.432,5.859 
		9.847,5.801 9.641,6.165 9.825,6.541 9.415,6.458 9.114,6.75 9.065,6.333 8.697,6.137 9.076,5.963 9.149,5.55 	"/>
	<polygon fill="none" stroke="#FFFFFF" stroke-width="0.5669" stroke-linecap="round" stroke-linejoin="round" points="
		20.319,5.921 20.601,6.231 20.184,6.267 19.976,6.63 19.814,6.244 19.404,6.16 19.721,5.885 19.676,5.47 20.032,5.686 
		20.414,5.513 	"/>
	<polygon fill="none" stroke="#FFFFFF" stroke-width="0.5669" stroke-linecap="round" stroke-linejoin="round" points="
		27.284,7.368 27.565,7.678 27.148,7.714 26.941,8.077 26.778,7.691 26.369,7.607 26.686,7.333 26.64,6.917 26.998,7.133 
		27.38,6.96 	"/>
	<polygon fill="none" stroke="#FFFFFF" stroke-width="0.5669" stroke-linecap="round" stroke-linejoin="round" points="
		26.684,9.278 26.967,9.589 26.55,9.624 26.342,9.988 26.18,9.602 25.769,9.517 26.086,9.243 26.041,8.827 26.398,9.044 
		26.782,8.871 	"/>
	<polygon fill="none" stroke="#FFFFFF" stroke-width="0.5669" stroke-linecap="round" stroke-linejoin="round" points="
		25.685,11.394 25.969,11.704 25.552,11.739 25.344,12.103 25.182,11.717 24.77,11.632 25.088,11.358 25.043,10.943 25.399,11.159 
		25.782,10.986 	"/>
	<polygon fill="none" stroke="#FFFFFF" stroke-width="0.5669" stroke-linecap="round" stroke-linejoin="round" points="
		24.892,12.988 25.173,13.299 24.756,13.334 24.55,13.697 24.388,13.312 23.977,13.227 24.294,12.952 24.249,12.537 24.605,12.754 
		24.988,12.581 	"/>
	<polygon fill="none" stroke="#FFFFFF" stroke-width="0.5669" stroke-linecap="round" stroke-linejoin="round" points="
		24.294,14.979 24.575,15.289 24.158,15.324 23.952,15.688 23.789,15.302 23.377,15.216 23.694,14.944 23.649,14.527 24.006,14.745 
		24.39,14.571 	"/>
	<polygon fill="none" stroke="#FFFFFF" stroke-width="0.2835" stroke-linecap="round" stroke-linejoin="round" points="
		23.618,16.652 23.828,16.886 23.514,16.913 23.359,17.186 23.238,16.896 22.928,16.832 23.167,16.625 23.133,16.313 23.401,16.476 
		23.689,16.345 	"/>
	<polygon fill="none" stroke="#FFFFFF" stroke-width="0.5669" stroke-linecap="round" stroke-linejoin="round" points="
		19.721,8.715 20.003,9.025 19.586,9.06 19.378,9.423 19.216,9.039 18.805,8.953 19.122,8.68 19.077,8.263 19.435,8.48 
		19.817,8.307 	"/>
	<polygon fill="none" stroke="#FFFFFF" stroke-width="0.5669" stroke-linecap="round" stroke-linejoin="round" points="
		19.122,10.814 19.404,11.124 18.987,11.159 18.78,11.522 18.617,11.137 18.207,11.052 18.524,10.778 18.478,10.362 18.836,10.579 
		19.217,10.406 	"/>
	<polygon fill="none" stroke="#FFFFFF" stroke-width="0.5669" stroke-linecap="round" stroke-linejoin="round" points="
		18.785,12.988 19.067,13.299 18.651,13.334 18.443,13.697 18.281,13.312 17.87,13.227 18.187,12.952 18.141,12.537 18.5,12.754 
		18.881,12.581 	"/>
	<polygon fill="none" stroke="#FFFFFF" stroke-width="0.5669" stroke-linecap="round" stroke-linejoin="round" points="
		18.654,14.686 18.832,14.883 18.568,14.905 18.435,15.136 18.332,14.891 18.072,14.837 18.273,14.663 18.244,14.399 18.471,14.537 
		18.714,14.426 	"/>
	<polygon fill="none" stroke="#FFFFFF" stroke-width="0.2835" stroke-linecap="round" stroke-linejoin="round" points="
		18.273,16.668 18.451,16.865 18.187,16.887 18.055,17.118 17.952,16.873 17.691,16.819 17.892,16.646 17.864,16.382 18.091,16.519 
		18.334,16.409 	"/>
	<polygon fill="none" stroke="#FFFFFF" stroke-width="0.5669" stroke-linecap="round" stroke-linejoin="round" points="3.885,8.785 
		4.288,8.751 4.102,9.062 4.298,9.399 3.893,9.309 3.61,9.551 3.546,9.185 3.174,8.998 3.54,8.861 3.594,8.502 	"/>
	<polygon fill="none" stroke="#FFFFFF" stroke-width="0.5669" stroke-linecap="round" stroke-linejoin="round" points="
		10.057,8.583 10.491,8.546 10.291,8.881 10.502,9.243 10.067,9.147 9.763,9.407 9.693,9.013 9.295,8.811 9.689,8.664 9.745,8.279 	
		"/>
	<polygon fill="none" stroke="#FFFFFF" stroke-width="0.5669" stroke-linecap="round" stroke-linejoin="round" points="
		5.007,11.225 5.411,11.191 5.224,11.502 5.421,11.84 5.016,11.75 4.733,11.992 4.668,11.625 4.298,11.438 4.664,11.302 
		4.716,10.943 	"/>
	<polygon fill="none" stroke="#FFFFFF" stroke-width="0.5669" stroke-linecap="round" stroke-linejoin="round" points="
		10.65,11.008 11.054,10.975 10.868,11.285 11.064,11.623 10.659,11.533 10.376,11.775 10.311,11.409 9.94,11.222 10.306,11.085 
		10.359,10.726 	"/>
	<polygon fill="none" stroke="#FFFFFF" stroke-width="0.5669" stroke-linecap="round" stroke-linejoin="round" points="
		11.212,13.172 11.615,13.139 11.43,13.45 11.626,13.787 11.22,13.697 10.938,13.94 10.874,13.572 10.502,13.385 10.868,13.249 
		10.922,12.89 	"/>
	<polygon fill="none" stroke="#FFFFFF" stroke-width="0.5669" stroke-linecap="round" stroke-linejoin="round" points="
		11.773,14.865 12.177,14.832 11.99,15.142 12.187,15.48 11.782,15.39 11.5,15.632 11.434,15.265 11.064,15.078 11.43,14.942 
		11.483,14.583 	"/>
	<polygon fill="none" stroke="#FFFFFF" stroke-width="0.2835" stroke-linecap="round" stroke-linejoin="round" points="12.289,17.4 
		12.523,17.381 12.415,17.561 12.529,17.756 12.293,17.704 12.131,17.844 12.093,17.631 11.878,17.523 12.091,17.444 12.121,17.237 
			"/>
	<polygon fill="none" stroke="#FFFFFF" stroke-width="0.5669" stroke-linecap="round" stroke-linejoin="round" points="
		5.974,13.399 6.378,13.366 6.192,13.676 6.389,14.014 5.983,13.924 5.7,14.167 5.635,13.799 5.265,13.612 5.631,13.476 
		5.684,13.117 	"/>
	<polygon fill="none" stroke="#FFFFFF" stroke-width="0.5669" stroke-linecap="round" stroke-linejoin="round" points="6.91,15.39 
		7.314,15.356 7.128,15.667 7.324,16.004 6.919,15.914 6.635,16.157 6.571,15.79 6.201,15.603 6.566,15.466 6.62,15.108 	"/>
	<polygon fill="none" stroke="#FFFFFF" stroke-linecap="round" stroke-linejoin="round" points="36.012,11.433 37.888,11.673 
		36.556,13.017 36.908,14.876 35.217,14.023 33.559,14.932 33.847,13.063 32.469,11.765 34.339,11.461 35.146,9.75 	"/>
	<polygon fill="none" stroke="#FFFFFF" stroke-linecap="round" stroke-linejoin="round" points="40.106,16.79 41.983,17.029 
		40.651,18.373 41.003,20.23 39.314,19.38 37.654,20.289 37.942,18.419 36.565,17.121 38.433,16.817 39.242,15.108 	"/>
	<polygon fill="none" stroke="#FFFFFF" stroke-linecap="round" stroke-linejoin="round" points="36.012,22.561 37.888,22.801 
		36.556,24.145 36.908,26.003 35.217,25.15 33.559,26.061 33.847,24.189 32.469,22.893 34.339,22.589 35.146,20.878 	"/>
	<polygon fill="none" stroke="#FFFFFF" stroke-linecap="round" stroke-linejoin="round" points="31.01,26.861 32.885,27.102 
		31.554,28.445 31.906,30.305 30.218,29.453 28.557,30.361 28.845,28.491 27.469,27.193 29.337,26.891 30.145,25.18 	"/>
</g>
</svg>
