<?xml version="1.0" encoding="utf-8"?>
<!-- Generator: Adobe Illustrator 14.0.0, SVG Export Plug-In . SVG Version: 6.00 Build 43363)  -->
<!DOCTYPE svg PUBLIC "-//W3C//DTD SVG 1.1//EN" "http://www.w3.org/Graphics/SVG/1.1/DTD/svg11.dtd">
<svg version="1.1" id="图层_1" xmlns="http://www.w3.org/2000/svg" xmlns:xlink="http://www.w3.org/1999/xlink" x="0px" y="0px"
	 width="72.415px" height="48.371px" viewBox="0 0 72.415 48.371" enable-background="new 0 0 72.415 48.371" xml:space="preserve">
<g>
	<path fill="none" stroke="#666666" stroke-linecap="round" stroke-linejoin="round" d="M-244.288-119.971v-6.913
		c0,0,4.232-1.195,6.623,1.859c0,0,3.26-1.461,5.946,2.921c0,0,7.226,1.196,3.894,4.516l-5.079,2.897"/>
	<path fill="none" stroke="#666666" stroke-linecap="round" stroke-linejoin="round" d="M-244.288-120.902
		c0,0,8.604-2.585,13.324,5.146"/>
	<polyline fill="none" stroke="#666666" stroke-linecap="round" stroke-linejoin="round" points="-246.418,-116.525 
		-246.418,-111.478 -253.867,-100.588 	"/>
	
		<line fill="none" stroke="#666666" stroke-linecap="round" stroke-linejoin="round" x1="-240.587" y1="-114.613" x2="-246.418" y2="-110.877"/>
	
		<line fill="none" stroke="#666666" stroke-linecap="round" stroke-linejoin="round" x1="-250.723" y1="-112.745" x2="-242.75" y2="-109.424"/>
	
		<line fill="none" stroke="#666666" stroke-linecap="round" stroke-linejoin="round" x1="-256.437" y1="-107.98" x2="-243.754" y2="-103.585"/>
	<path fill="none" stroke="#666666" stroke-linecap="round" stroke-linejoin="round" d="M-237.07-117.917
		c0,0-23.434-9.602-27.761,12.135c0,0-4.711,20.619,22.969,14.615c0,0,10.562-2.291,12.004-11.69
		C-229.849-103.896-228.063-113.2-237.07-117.917z"/>
	<path fill="none" stroke="#666666" stroke-linecap="round" stroke-linejoin="round" d="M-243.754-130.667
		c-14.977-3.333-15.94,5.417-15.94,5.417"/>
	<path fill="none" stroke="#666666" d="M-245.195-133.583"/>
	<polyline fill="none" stroke="#666666" stroke-linecap="round" stroke-linejoin="round" points="-245.627,-133.583 
		-243.754,-130.491 -247.253,-126.726 	"/>
	<path fill="none" stroke="#666666" stroke-linecap="round" stroke-linejoin="round" d="M-232.591-114.869
		c0,0,9.748,1.932,2.184,3.784"/>
	<path fill="none" stroke="#666666" stroke-linecap="round" stroke-linejoin="round" d="M-228.194-111.854
		c0,0,5.099,2.042-1.596,4.237"/>
	<polyline fill="none" stroke="#666666" stroke-linecap="round" stroke-linejoin="round" points="-235.618,-125.25 
		-235.618,-132.007 -197.647,-132.007 -197.647,-105.782 -229.077,-105.782 	"/>
	<polyline fill="none" stroke="#666666" stroke-linecap="round" stroke-linejoin="round" points="-235.618,-131.424 
		-221.432,-119.388 -216.632,-115.315 -197.647,-131.424 	"/>
	
		<line fill="none" stroke="#666666" stroke-linecap="round" stroke-linejoin="round" x1="-227.471" y1="-113.934" x2="-221.432" y2="-119.388"/>
	
		<line fill="none" stroke="#666666" stroke-linecap="round" stroke-linejoin="round" x1="-211.333" y1="-119.388" x2="-198.169" y2="-105.782"/>
	<path fill="none" stroke="#666666" stroke-linecap="round" stroke-linejoin="round" d="M-209.348-102.024
		c0,0,4.179,10.843-8.462,11.481"/>
	<polyline fill="none" stroke="#666666" stroke-linecap="round" stroke-linejoin="round" points="-217.183,-93.458 
		-218.854,-90.543 -214.675,-87.189 	"/>
</g>
<g>
	<path fill="none" stroke="#666666" stroke-linecap="round" stroke-linejoin="round" d="M-69.317-84.697c0,0-4.776-2.089-16.16,9.13
		l-20.25-3.722l-2.791,2.736l15.872,8.374l-8.593,9.03l-8.319,0.328c0,0-1.344,0.695,0,1.86s5.423,3.263,5.423,3.263l2.972,6.293
		c0,0,1.398,0.35,1.864-1.224v-6.409l10.663-8.624l6.642,16.897l2.797-2.098l-1.166-20.859
		C-80.363-69.72-68.759-79.165-69.317-84.697z"/>
	<path fill="none" stroke="#666666" d="M-36.092-68.614c1.33-2.188,3.332-6.854-1.939-9.164c-0.52-0.228-2.507-0.648-3.519-0.508
		c-1.947,0.27-4.945,1.205-5.816,4.357c-0.157,0.569-0.142,2.568,0.136,3.447c0.833,2.636,3.234,7.461,9.111,3.877
		C-37.729-66.842-36.536-67.885-36.092-68.614z"/>
	
		<line fill="none" stroke="#666666" stroke-width="1.4173" stroke-linecap="round" stroke-linejoin="round" x1="-39.312" y1="-85.295" x2="-39.312" y2="-82.205"/>
	
		<line fill="none" stroke="#666666" stroke-width="1.4173" stroke-linecap="round" stroke-linejoin="round" x1="-45.371" y1="-84.851" x2="-43.793" y2="-80.96"/>
	
		<line fill="none" stroke="#666666" stroke-width="1.4173" stroke-linecap="round" stroke-linejoin="round" x1="-52.26" y1="-80.96" x2="-49.77" y2="-78.968"/>
	
		<line fill="none" stroke="#666666" stroke-width="1.4173" stroke-linecap="round" stroke-linejoin="round" x1="-54.5" y1="-75.15" x2="-51.762" y2="-73.822"/>
	
		<line fill="none" stroke="#666666" stroke-width="1.4173" stroke-linecap="round" stroke-linejoin="round" x1="-54.5" y1="-67.016" x2="-50.102" y2="-68.427"/>
	
		<line fill="#FFFFFF" stroke="#666666" stroke-width="1.4173" stroke-linecap="round" stroke-linejoin="round" x1="-30.911" y1="-82.906" x2="-33.223" y2="-79.964"/>
	
		<line fill="#FFFFFF" stroke="#666666" stroke-width="1.4173" stroke-linecap="round" stroke-linejoin="round" x1="-31.723" y1="-74.799" x2="-27.911" y2="-76.737"/>
	
		<line fill="#FFFFFF" stroke="#666666" stroke-width="1.4173" stroke-linecap="round" stroke-linejoin="round" x1="-31.348" y1="-67.721" x2="-27.911" y2="-67.721"/>
	
		<line fill="#FFFFFF" stroke="#666666" stroke-width="1.4173" stroke-linecap="round" stroke-linejoin="round" x1="-34.098" y1="-64.424" x2="-32.411" y2="-61.612"/>
	
		<line fill="#FFFFFF" stroke="#666666" stroke-width="1.4173" stroke-linecap="round" stroke-linejoin="round" x1="-39.312" y1="-62.612" x2="-38.786" y2="-59.174"/>
	
		<line fill="#FFFFFF" stroke="#666666" stroke-width="1.4173" stroke-linecap="round" stroke-linejoin="round" x1="-45.661" y1="-62.612" x2="-46.598" y2="-59.174"/>
	
		<line fill="#FFFFFF" stroke="#666666" stroke-width="1.4173" stroke-linecap="round" stroke-linejoin="round" x1="-48.348" y1="-64.987" x2="-50.102" y2="-62.612"/>
	<path fill="none" stroke="#666666" stroke-linecap="round" stroke-linejoin="round" d="M-79.475-53.823h38.448
		c0,0-2.597,12.315-8.199,15.649h-32.269c0,0-4.167,1.369-5.167-15.649h1.891"/>
	
		<line fill="none" stroke="#666666" stroke-linecap="round" stroke-linejoin="round" x1="-84.74" y1="-41.812" x2="-45.722" y2="-41.812"/>
	<path fill="none" stroke="#666666" stroke-linecap="round" stroke-linejoin="round" d="M-80.067-64.424l1.74-0.563v-2.734
		c0,0,0.3-1.347,0.767-1.619c1.116-0.648,3.183-1.456,4.382,0.515v3.838h14.224c0,0,6.835,1.938,7.939,4.688v6.476"/>
	<path fill="none" stroke="#666666" stroke-linecap="round" stroke-linejoin="round" d="M-76.458-60.893c0,0,2.689,0.62,2.208,3.416
		c-0.078,0.455-0.948,1.729-1.566,1.843c-1.252,0.231-3.251,0.17-3.89-2.318"/>
	<path fill="none" stroke="#666666" stroke-linecap="round" stroke-linejoin="round" d="M-69.591-60.893
		c0,0,4.362,2.363,0.969,4.716c0,0-3.522,2.815-4.039-2.998"/>
	<path fill="none" stroke="#666666" stroke-linecap="round" stroke-linejoin="round" d="M-63.29-61.267c0,0,3.07,1.858,1.777,4.12
		c0,0-3.797,4.75-4.605-2.028"/>
	<path fill="none" stroke="#666666" stroke-linecap="round" stroke-linejoin="round" d="M-56.988-60.893c0,0,4.686,2.04,0.969,4.555
		c0,0-3.554,2.977-3.635-2.836"/>
	<path fill="none" stroke="#666666" stroke-linecap="round" stroke-linejoin="round" d="M-113.701-45.028
		c0,0,3.321-2.454,8.12,2.942c0.278,0.312,1.41,1.182,2.313,1.247c1.941,0.14,5.459-0.183,8.349-3.602
		c0.178-0.21,1.043-0.752,1.812-0.664c1.029,0.119,2.51,0.548,3.805,1.906c0,0,4.118,4.068,4.563,1.887"/>
	<path fill="none" stroke="#666666" stroke-linecap="round" stroke-linejoin="round" d="M-44.582-43.771c0,0,6.254-1.178,8.92,1.327
		c0,0,1.938,4.94,7.19-0.802c0,0,2.586-2.001,4.121-0.802"/>
</g>
<g>
	<polygon fill="none" stroke="#666666" stroke-linecap="round" stroke-linejoin="round" points="6.712,30.53 6.712,41.717 
		21.353,47.57 43.589,42.684 43.589,31.634 21.846,35.652 	"/>
	<polyline fill="none" stroke="#666666" stroke-linecap="round" stroke-linejoin="round" points="6.712,30.53 1.173,20.076 
		15.006,23.576 21.846,35.652 21.846,47.461 	"/>
	<polyline fill="none" stroke="#666666" stroke-linecap="round" stroke-linejoin="round" points="21.846,35.326 25.589,24.909 
		48.339,23.07 43.589,31.634 	"/>
	<polyline fill="none" stroke="#666666" stroke-linecap="round" stroke-linejoin="round" points="43.692,31.448 52.839,23.576 
		42.256,18.409 36.839,23.493 	"/>
	<polyline fill="none" stroke="#666666" stroke-linecap="round" stroke-linejoin="round" points="4.839,20.493 35.093,17.493 
		36.281,24.045 	"/>
	<polygon fill="none" stroke="#666666" stroke-linecap="round" stroke-linejoin="round" points="51.658,3.662 55.01,4.091 
		52.631,6.49 53.258,9.811 50.241,8.289 47.278,9.913 47.792,6.572 45.333,4.255 48.668,3.712 50.112,0.658 	"/>
	<polygon fill="none" stroke="#666666" stroke-width="0.5669" stroke-linecap="round" stroke-linejoin="round" points="1.909,2.976 
		2.586,2.881 2.25,3.476 2.55,4.09 1.881,3.955 1.389,4.431 1.311,3.751 0.707,3.431 1.328,3.146 1.446,2.473 	"/>
	<polygon fill="none" stroke="#666666" stroke-width="0.5669" stroke-linecap="round" stroke-linejoin="round" points="13.449,1.56 
		14.19,1.456 13.823,2.106 14.151,2.778 13.418,2.63 12.881,3.151 12.794,2.407 12.135,2.057 12.814,1.746 12.943,1.009 	"/>
	<polygon fill="none" stroke="#666666" stroke-width="0.5669" stroke-linecap="round" stroke-linejoin="round" points="
		32.894,1.671 33.396,2.225 32.652,2.288 32.281,2.937 31.992,2.248 31.258,2.097 31.825,1.607 31.743,0.864 32.382,1.251 
		33.064,0.943 	"/>
	<polygon fill="none" stroke="#666666" stroke-width="0.5669" stroke-linecap="round" stroke-linejoin="round" points="
		45.333,4.255 45.835,4.809 45.091,4.872 44.72,5.521 44.431,4.832 43.697,4.681 44.264,4.191 44.182,3.448 44.821,3.835 
		45.503,3.527 	"/>
	<polygon fill="none" stroke="#666666" stroke-width="0.5669" stroke-linecap="round" stroke-linejoin="round" points="
		44.263,7.667 44.766,8.222 44.021,8.284 43.65,8.934 43.361,8.245 42.628,8.093 43.194,7.604 43.112,6.861 43.751,7.248 
		44.434,6.939 	"/>
	<polygon fill="none" stroke="#666666" stroke-width="0.5669" stroke-linecap="round" stroke-linejoin="round" points="
		42.479,11.446 42.981,12 42.237,12.063 41.866,12.712 41.577,12.023 40.843,11.872 41.41,11.382 41.328,10.64 41.967,11.026 
		42.649,10.718 	"/>
	<polygon fill="none" stroke="#666666" stroke-width="0.5669" stroke-linecap="round" stroke-linejoin="round" points="
		41.062,14.293 41.564,14.848 40.82,14.91 40.449,15.56 40.16,14.871 39.426,14.719 39.993,14.229 39.911,13.487 40.55,13.874 
		41.232,13.565 	"/>
	<polygon fill="none" stroke="#666666" stroke-width="0.5669" stroke-linecap="round" stroke-linejoin="round" points="
		39.992,17.849 40.495,18.403 39.75,18.465 39.379,19.115 39.09,18.426 38.357,18.274 38.923,17.785 38.841,17.042 39.48,17.429 
		40.163,17.121 	"/>
	<polygon fill="none" stroke="#666666" stroke-width="0.2835" stroke-linecap="round" stroke-linejoin="round" points="
		38.783,20.838 39.161,21.255 38.601,21.302 38.322,21.791 38.104,21.272 37.552,21.158 37.979,20.79 37.917,20.231 38.398,20.522 
		38.912,20.29 	"/>
	<polygon fill="none" stroke="#666666" stroke-width="0.5669" stroke-linecap="round" stroke-linejoin="round" points="
		31.825,6.661 32.328,7.215 31.583,7.277 31.212,7.927 30.923,7.238 30.189,7.086 30.756,6.597 30.674,5.854 31.313,6.241 
		31.996,5.933 	"/>
	<polygon fill="none" stroke="#666666" stroke-width="0.5669" stroke-linecap="round" stroke-linejoin="round" points="
		30.755,10.41 31.258,10.964 30.514,11.026 30.143,11.676 29.854,10.987 29.12,10.835 29.687,10.346 29.604,9.603 30.244,9.99 
		30.926,9.682 	"/>
	<polygon fill="none" stroke="#666666" stroke-width="0.5669" stroke-linecap="round" stroke-linejoin="round" points="
		30.154,14.293 30.657,14.848 29.913,14.91 29.542,15.56 29.252,14.871 28.519,14.719 29.085,14.229 29.003,13.487 29.643,13.874 
		30.325,13.565 	"/>
	<polygon fill="none" stroke="#666666" stroke-width="0.5669" stroke-linecap="round" stroke-linejoin="round" points="
		29.918,17.325 30.237,17.677 29.764,17.717 29.528,18.129 29.345,17.691 28.879,17.595 29.239,17.284 29.187,16.813 29.593,17.058 
		30.026,16.862 	"/>
	<polygon fill="none" stroke="#666666" stroke-width="0.2835" stroke-linecap="round" stroke-linejoin="round" points="
		29.239,20.865 29.558,21.217 29.085,21.257 28.849,21.669 28.666,21.231 28.2,21.135 28.56,20.824 28.507,20.353 28.914,20.598 
		29.347,20.402 	"/>
	<polygon fill="none" stroke="#666666" stroke-width="0.5669" stroke-linecap="round" stroke-linejoin="round" points="3.54,6.785 
		4.261,6.725 3.929,7.28 4.279,7.882 3.555,7.722 3.05,8.155 2.935,7.5 2.273,7.165 2.926,6.921 3.021,6.281 	"/>
	<polygon fill="none" stroke="#666666" stroke-width="0.5669" stroke-linecap="round" stroke-linejoin="round" points="
		14.566,6.424 15.341,6.36 14.984,6.957 15.36,7.604 14.583,7.432 14.04,7.897 13.915,7.193 13.204,6.833 13.906,6.571 
		14.008,5.883 	"/>
	<polygon fill="none" stroke="#666666" stroke-width="0.5669" stroke-linecap="round" stroke-linejoin="round" points="
		5.545,11.144 6.267,11.083 5.935,11.639 6.285,12.241 5.561,12.081 5.056,12.514 4.94,11.858 4.279,11.524 4.932,11.28 
		5.027,10.64 	"/>
	<polygon fill="none" stroke="#666666" stroke-width="0.5669" stroke-linecap="round" stroke-linejoin="round" points="
		15.624,10.757 16.345,10.697 16.013,11.252 16.363,11.855 15.64,11.694 15.135,12.127 15.019,11.472 14.357,11.138 15.01,10.894 
		15.105,10.253 	"/>
	<polygon fill="none" stroke="#666666" stroke-width="0.5669" stroke-linecap="round" stroke-linejoin="round" points="
		16.627,14.622 17.348,14.562 17.016,15.117 17.366,15.719 16.643,15.559 16.138,15.992 16.022,15.336 15.36,15.002 16.013,14.758 
		16.108,14.118 	"/>
	<polygon fill="none" stroke="#666666" stroke-width="0.5669" stroke-linecap="round" stroke-linejoin="round" points="
		17.63,17.645 18.351,17.585 18.019,18.14 18.369,18.743 17.646,18.582 17.141,19.015 17.025,18.36 16.363,18.025 17.016,17.782 
		17.111,17.141 	"/>
	<polygon fill="none" stroke="#666666" stroke-width="0.2835" stroke-linecap="round" stroke-linejoin="round" points="
		18.551,22.173 18.968,22.138 18.776,22.459 18.979,22.808 18.56,22.715 18.268,22.966 18.201,22.586 17.818,22.393 18.196,22.252 
		18.251,21.882 	"/>
	<polygon fill="none" stroke="#666666" stroke-width="0.5669" stroke-linecap="round" stroke-linejoin="round" points="
		7.272,15.027 7.994,14.967 7.662,15.522 8.012,16.125 7.288,15.964 6.783,16.397 6.667,15.742 6.006,15.407 6.659,15.164 
		6.754,14.523 	"/>
	<polygon fill="none" stroke="#666666" stroke-width="0.5669" stroke-linecap="round" stroke-linejoin="round" points="
		8.944,18.582 9.666,18.522 9.333,19.077 9.684,19.68 8.96,19.519 8.455,19.952 8.339,19.297 7.678,18.962 8.331,18.719 
		8.426,18.078 	"/>
	<polygon fill="none" stroke="#666666" stroke-linecap="round" stroke-linejoin="round" points="60.92,11.515 64.272,11.944 
		61.893,14.344 62.521,17.664 59.503,16.142 56.54,17.766 57.055,14.426 54.595,12.108 57.93,11.566 59.375,8.511 	"/>
	<polygon fill="none" stroke="#666666" stroke-linecap="round" stroke-linejoin="round" points="68.234,21.082 71.586,21.511 
		69.207,23.911 69.834,27.231 66.817,25.709 63.854,27.333 64.368,23.993 61.908,21.675 65.244,21.133 66.688,18.078 	"/>
	<polygon fill="none" stroke="#666666" stroke-linecap="round" stroke-linejoin="round" points="60.92,31.389 64.272,31.818 
		61.893,34.217 62.521,37.538 59.503,36.016 56.54,37.64 57.055,34.299 54.595,31.982 57.93,31.439 59.375,28.385 	"/>
	<polygon fill="none" stroke="#666666" stroke-linecap="round" stroke-linejoin="round" points="51.988,39.072 55.34,39.501 
		52.96,41.901 53.588,45.221 50.571,43.699 47.607,45.323 48.122,41.983 45.662,39.666 48.998,39.123 50.442,36.068 	"/>
</g>
</svg>
