<?xml version="1.0" encoding="utf-8"?>
<!-- Generator: Adobe Illustrator 14.0.0, SVG Export Plug-In . SVG Version: 6.00 Build 43363)  -->
<!DOCTYPE svg PUBLIC "-//W3C//DTD SVG 1.1//EN" "http://www.w3.org/Graphics/SVG/1.1/DTD/svg11.dtd">
<svg version="1.1" id="图层_1" xmlns="http://www.w3.org/2000/svg" xmlns:xlink="http://www.w3.org/1999/xlink" x="0px" y="0px"
	 width="83.236px" height="40.027px" viewBox="0 0 83.236 40.027" enable-background="new 0 0 83.236 40.027" xml:space="preserve">
<g>
	<ellipse fill="#333333" cx="-25.347" cy="11.819" rx="9.204" ry="11.819"/>
	<path fill="#333333" d="M-32.748,26.313c0,0,6.709,12.077,14.845,0c0,0,8.173-1.081,7.896,13.271c0,0-0.113,0.403-0.364,0.42
		h-29.726c0,0-0.225,0.047-0.354-0.268C-40.45,39.737-41.49,26.397-32.748,26.313z"/>
</g>
<path fill="#333333" d="M12.123,0.613c0,0-14.197,0.09-11.864,15.756c0,0,0,6.583,11.833,23.583
	c11.833-17,11.833-23.583,11.833-23.583C26.258,0.702,12.123,0.613,12.123,0.613z M12.092,19.976c-3.748,0-6.787-3.039-6.787-6.788
	S8.344,6.4,12.092,6.4c3.749,0,6.788,3.039,6.788,6.788S15.841,19.976,12.092,19.976z"/>
<text transform="matrix(1 0 0 1 24.1853 6.6458)" fill="#333333" font-family="'MicrosoftYaHei-Bold'" font-size="8">TENSO-JAPAN</text>
<g>
	<path fill="#333333" d="M188.529,36.005c0,2.209-1.791,4-4,4h-88c-2.209,0-4-1.791-4-4v-32c0-2.209,1.791-4,4-4h88
		c2.209,0,4,1.791,4,4V36.005z"/>
	<text transform="matrix(1 0 0 1 96.241 23.5969)" fill="#FFFFFF" font-family="'MicrosoftYaHei-Bold'" font-size="12">TENSO-JAPAN</text>
</g>
<g>
	<g>
		<path fill="#333333" d="M226.075,36.413h-7.123V18.49h-1.402v15.8h-1.243c0.113-1.798-0.932-1.793-0.932-1.793l-2.666-14.007
			h-9.308c-0.397,0.086-0.408,0.448-0.408,0.448v11.163l-3.465-0.685c-0.689-0.333-1,0.422-1,0.422v6.909
			c0.089,0.399,0.354,0.511,0.354,0.511h0.889c0.245-3.488,3.221-3.399,3.221-3.399c3.465,0.044,3.421,3.376,3.421,3.376h1.911
			c0.066-3.421,3.176-3.376,3.176-3.376c3.644,0.111,3.389,3.438,3.389,3.438h0.842c0.667-0.2,0.59-1.526,0.59-1.526h1.245
			l-0.011,2.043C226.208,37.814,226.075,36.413,226.075,36.413z M204.047,29.264v-9.31c0.128-0.356,0.394-0.472,0.394-0.472h6.805
			c0.636,0,0.792,0.669,0.792,0.669l1.782,9.111L204.047,29.264L204.047,29.264z"/>
		<g>
			<circle fill="#333333" cx="203.034" cy="37.083" r="2.802"/>
			<circle fill="#FFFFFF" cx="203.034" cy="37.083" r="1.142"/>
		</g>
		<g>
			<circle fill="#333333" cx="211.609" cy="37.083" r="2.802"/>
			<circle fill="#FFFFFF" cx="211.609" cy="37.083" r="1.141"/>
		</g>
		<g>
			<circle fill="#333333" cx="208.107" cy="22.613" r="1.953"/>
			<path fill="#333333" d="M205.654,29.264c0,0-0.358-2.046,0.037-3.238c0.192-0.583,0.611-1.609,1.954-1.169
				c0,0,0.833,0.125,1.053,2.077l0.144,2.33H205.654z"/>
			<path fill="#333333" d="M210.447,29.264l1.855-2.484c0,0,0.642-0.362,0.607,0.326l-1.552,2.158H210.447z"/>
			<polyline fill="#333333" points="211.671,28.556 212.69,29.301 213.362,29.264 211.947,28.151 211.671,28.51 			"/>
			<path fill="#333333" d="M208.341,28.475c0.782,0.535,4.12,0.46,4.015-0.439c0,0,0.189-0.563-1.264-0.575
				c0,0-0.55-0.031-1.669-0.229c0,0-1.036-0.261-1.541-1.228c-0.133-0.313-1.357-0.811-1.436,0.339
				C206.445,26.343,206.266,27.055,208.341,28.475z"/>
		</g>
		<path fill="#333333" d="M225.697,27.945c0,0.394-0.318,0.711-0.71,0.711h-4.644c-0.394,0-0.712-0.317-0.712-0.711v-4.643
			c0-0.393,0.318-0.71,0.712-0.71h4.644c0.393,0,0.71,0.318,0.71,0.71V27.945z"/>
		<path fill="#333333" d="M225.697,34.869c0,0.393-0.318,0.711-0.71,0.711h-4.644c-0.394,0-0.712-0.318-0.712-0.711v-4.644
			c0-0.393,0.318-0.71,0.712-0.71h4.644c0.393,0,0.71,0.318,0.71,0.71V34.869z"/>
	</g>
	<g>
		<path fill="#333333" d="M245.432,0.067l-19.547,9.017v5.405c0.03,0.5,0.327,0.466,0.327,0.466h1.859v24.347
			c0.047,0.547,0.422,0.578,0.422,0.578h16.938h17.925c0,0,0.396-0.031,0.447-0.578V14.955h1.968c0,0,0.313,0.034,0.347-0.466V9.083
			L245.432,0.067z"/>
		<polygon fill="#FFFFFF" points="264.024,10.552 245.369,2.567 228.072,10.552 228.072,12.738 230.36,12.738 230.307,37.676 
			245.369,37.676 261.614,37.676 261.557,12.738 264.024,12.738 		"/>
		<rect x="232.515" y="19.469" fill="#333333" width="26.749" height="18.208"/>
		<rect x="232.515" y="13.859" fill="#333333" width="5.608" height="3.385"/>
		<rect x="239.283" y="13.859" fill="#333333" width="5.609" height="3.385"/>
		<rect x="246.399" y="13.859" fill="#333333" width="5.608" height="3.385"/>
		<rect x="253.655" y="13.859" fill="#333333" width="5.609" height="3.385"/>
		<rect x="234.787" y="25.171" fill="#FFFFFF" width="6.629" height="3.4"/>
		<rect x="234.787" y="29.76" fill="#FFFFFF" width="6.629" height="3.401"/>
		<rect x="234.787" y="34.275" fill="#FFFFFF" width="6.629" height="3.401"/>
		<rect x="242.575" y="34.275" fill="#FFFFFF" width="6.629" height="3.401"/>
		<rect x="242.575" y="29.76" fill="#FFFFFF" width="6.629" height="3.401"/>
		<rect x="250.34" y="34.275" fill="#FFFFFF" width="6.63" height="3.401"/>
	</g>
</g>
<g>
	<path fill="#333333" d="M315.69,25.823h15.177c0,0,0.301,0.064,0.37,0.396v6.399h-21.27v-1.725l-0.769-0.341l-0.604,0.536v7.4
		c0,0,0.359,1.303,1.328,1.465h21.313c0,0,0.911-0.18,1.393-1.363V25.898c0,0-0.351-1.095-1.431-1.431h-13.367
		c0,0,0.073-4.266-0.188-7.216c0,0-0.672-3.39-3.39-6.516c0,0-2.911-3.974-3.223-5.608c0,0-0.643-2.201-4.46-2.609
		c0,0-21.542,0.292-26.45-2.513c0,0-3.221,6.085-3.918,9.723c0,0-0.351,1.734,0.388,1.98c0,0,3.919,1.424,5.264,2.904
		c0,0,2.979,2.435,7.216,4.129c0,0,5.581,2.22,7.304,2.717l-0.012,0.146c0,0-2.783-0.311-2.938,1.219c0,0-1.081,1.949,1.198,2.533
		c0,0,1.141,0.513,2.921,0.513c0,0-0.397,2.57,0.361,2.94c0,0,1.374,0.701,6.472-0.721l0.163,0.021c0,0-1.211,1.905,0.469,2.769
		c0,0,1.563,1.432,3.842-1.446l3.418,1.33c0,0,2.979,0.773,3.01-1.885c0,0,0.935-3.447-4.733-6.896c0,0-5.843-3.797-5.988-5.054
		c0,0-0.264-2.512,2.892-1.899c0,0,2.483,1.432,4.499,3.359c0,0,0.789,3.564,0.73,3.886
		C312.675,22.276,315.461,24.757,315.69,25.823z"/>
	<path fill="#FFFFFF" d="M310.013,36.406h21.235v1.851c0,0-0.137,0.273-0.457,0.32h-20.413c0,0-0.229-0.047-0.365-0.32V36.406z"/>
</g>
<g>
	<g>
		<path fill="#333333" d="M362.177,0.216l-19.548,9.016v5.406c0.031,0.5,0.328,0.465,0.328,0.465h1.859V39.45
			c0.047,0.547,0.422,0.577,0.422,0.577h16.938h17.925c0,0,0.396-0.03,0.446-0.577V15.103h1.969c0,0,0.313,0.035,0.348-0.465V9.231
			L362.177,0.216z"/>
		<polygon fill="#FFFFFF" points="380.768,10.7 362.113,2.716 344.816,10.7 344.816,12.886 347.104,12.886 347.052,37.825 
			362.113,37.825 378.358,37.825 378.302,12.886 380.768,12.886 		"/>
		<rect x="349.26" y="19.617" fill="#333333" width="26.748" height="18.208"/>
		<rect x="349.26" y="14.008" fill="#333333" width="5.608" height="3.384"/>
		<rect x="356.027" y="14.008" fill="#333333" width="5.609" height="3.384"/>
		<rect x="363.144" y="14.008" fill="#333333" width="5.608" height="3.384"/>
		<rect x="370.399" y="14.008" fill="#333333" width="5.608" height="3.384"/>
		<rect x="351.531" y="25.319" fill="#FFFFFF" width="6.629" height="3.401"/>
		<rect x="351.531" y="29.909" fill="#FFFFFF" width="6.629" height="3.4"/>
		<rect x="351.531" y="34.423" fill="#FFFFFF" width="6.629" height="3.4"/>
		<rect x="359.319" y="34.423" fill="#FFFFFF" width="6.629" height="3.4"/>
		<rect x="359.319" y="29.909" fill="#FFFFFF" width="6.629" height="3.4"/>
		<rect x="367.084" y="34.423" fill="#FFFFFF" width="6.629" height="3.4"/>
	</g>
	<g>
		<path fill="#333333" d="M410.756,33.268c0,0.552-0.452,1-1.01,1h-25.873c-0.559,0-1.01-0.448-1.01-1v-9.979
			c0-0.553,0.451-1,1.01-1h25.873c0.558,0,1.01,0.447,1.01,1V33.268z"/>
		<text transform="matrix(1 0 0 1 383.8914 29.3254)" fill="#FFFFFF" font-family="'MicrosoftYaHei-Bold'" font-size="3.5">TENSO-JAPAN</text>
		<path fill="#333333" d="M386.204,36.475c0,0-0.853,0.87,0,2.031h-2.313v-2.031H386.204z"/>
		<path fill="#333333" d="M393.727,36.475c0,0,0.719,1.133,0,2.031h19.405c0,0-0.719-5.229,3.688-5.229c0,0,4.281-0.094,3.938,4.72
			h3.563v-2.313l-0.453-0.406V29.54l-4.146-7.252h-7.479l-0.031,13.755c0,0,0.145,0.433-0.339,0.433L393.727,36.475L393.727,36.475z
			"/>
		<path fill="#FFFFFF" d="M414.773,24.919h-0.711h-0.711c0,0-0.316,0.06-0.253,0.43v4.315c0,0,0.03,0.179,0.362,0.268h0.602h0.601
			c0.332-0.089,0.363-0.268,0.363-0.268v-4.315C415.09,24.979,414.773,24.919,414.773,24.919z"/>
		<path fill="#FFFFFF" d="M415.429,24.919h3.656l2.984,3.357c0,0,0.219,0.643-0.094,0.643h-5l-0.291,0.114l-0.804,0.886
			c0,0-0.469,0.141-0.452-0.5V24.919z"/>
		<circle fill="#333333" cx="389.83" cy="37.604" r="2.424"/>
		<circle fill="#FFFFFF" cx="389.83" cy="37.604" r="1.604"/>
		<circle fill="#333333" cx="416.914" cy="37.604" r="2.423"/>
		<circle fill="#FFFFFF" cx="416.914" cy="37.604" r="1.603"/>
	</g>
</g>
<g>
	<path fill="#333333" d="M479.412,38.225c0,0.552-0.502,1-1.123,1h-2.23c-0.62,0-1.123-0.448-1.123-1V24.541
		c0-0.553,0.503-1,1.123-1h2.23c0.621,0,1.123,0.447,1.123,1V38.225z"/>
	<path fill="#333333" d="M473.293,35.689v-9.48c0,0-0.486-1.641-7.133-3.19c0,0-1.815-0.532-4.297,1.152l-2.969,1.506
		c0,0-0.436,0.402-3.094,0.49l-6.919-0.27c0,0-1.675-0.091-1.77,1.284c0,0-0.344,1.75,1.969,1.922c0,0,6.781,1.047,9.313,1.172
		c0,0,2.438,0.063,2.344,0.938c0,0,0.375,1.156-1.844,1.219l-11.799-1.25c0,0-0.982,0.063-3.451-2.469c0,0-5.344-7.563-7.344-8.031
		c0,0-2.438-1.063-1.938,1.563c0,0-0.125,0.53,2.459,4.155l5.791,8.625c0,0,0.625,1.083,1.875,1.542l8.084,3.292h2.625
		c0,0,14.75-3.417,16.375-3.708C471.572,36.151,472.681,35.978,473.293,35.689z"/>
	<path fill="#333333" d="M437.975,20.227c0,0,1.902,1.626,2.577,2.491c0,0,4.358,5.294,4.723,5.536h0.227
		c0,0,0.553-1.713,0.534-2.06c0,0-4.584-6.399-6.591-6.78C439.444,19.414,437.905,19.067,437.975,20.227z"/>
	<path fill="#333333" d="M442.3,20.192l4.811,5.018c0,0,1.106-0.779,2.214-0.831c0,0-4.773-4.999-5.467-4.896
		C443.856,19.483,442.316,19.292,442.3,20.192z"/>
	<polygon fill="#333333" points="445.447,5.977 445.447,18.977 455.803,24.256 455.803,11.275 	"/>
	<polygon fill="#333333" points="466.719,5.977 466.719,18.977 456.363,24.256 456.363,11.275 	"/>
	<g>
		<polygon fill="#C6000D" points="456.955,0.471 446.318,5.908 445.447,5.463 456.082,0.025 		"/>
		<polygon fill="#C6000D" points="458.907,1.47 450.051,5.997 449.179,5.552 458.036,1.024 		"/>
		<polygon fill="#C6000D" points="459.012,3.413 452.005,6.996 451.132,6.55 458.141,2.967 		"/>
		<polygon fill="#C6000D" points="460.966,4.411 453.956,7.994 453.084,7.548 460.094,3.965 		"/>
		<polygon fill="#C6000D" points="465.848,5.908 455.212,0.472 456.082,0.025 466.719,5.462 		"/>
		<polygon fill="#C6000D" points="456.082,10.899 445.447,5.463 446.318,5.017 456.954,10.454 		"/>
		<polygon fill="#C6000D" points="453.956,7.994 449.179,5.552 450.051,5.106 454.828,7.548 		"/>
		<polygon fill="#C6000D" points="462.048,5.854 457.27,3.413 458.141,2.967 462.92,5.409 		"/>
		<polygon fill="#C6000D" points="462.92,5.409 454.166,9.884 453.293,9.438 462.047,4.963 		"/>
		<polygon fill="#C6000D" points="466.719,5.463 456.084,10.899 455.212,10.454 465.848,5.018 		"/>
	</g>
</g>
</svg>
