<?xml version="1.0" encoding="utf-8"?>
<!-- Generator: Adobe Illustrator 14.0.0, SVG Export Plug-In . SVG Version: 6.00 Build 43363)  -->
<!DOCTYPE svg PUBLIC "-//W3C//DTD SVG 1.1//EN" "http://www.w3.org/Graphics/SVG/1.1/DTD/svg11.dtd">
<svg version="1.1" id="图层_1" xmlns="http://www.w3.org/2000/svg" xmlns:xlink="http://www.w3.org/1999/xlink" x="0px" y="0px"
	 width="96px" height="40.027px" viewBox="0 0 96 40.027" enable-background="new 0 0 96 40.027" xml:space="preserve">
<g>
	<ellipse fill="#333333" cx="-117.876" cy="11.819" rx="9.204" ry="11.819"/>
	<path fill="#333333" d="M-125.277,26.313c0,0,6.709,12.077,14.844,0c0,0,8.173-1.081,7.897,13.271c0,0-0.113,0.403-0.364,0.42
		h-29.726c0,0-0.225,0.047-0.353-0.268C-132.979,39.737-134.02,26.397-125.277,26.313z"/>
</g>
<g>
	<g>
		<path fill="#333333" d="M-80.406,0.613c0,0-14.197,0.09-11.864,15.756c0,0,0,6.583,11.833,23.583
			c11.833-17,11.833-23.583,11.833-23.583C-66.271,0.702-80.406,0.613-80.406,0.613z"/>
		<circle fill="#FFFFFF" cx="-80.437" cy="13.188" r="6.788"/>
	</g>
	<text transform="matrix(1 0 0 1 -68.3442 6.6458)" fill="#333333" font-family="'MicrosoftYaHei-Bold'" font-size="8">TENSO-JAPAN</text>
</g>
<g>
	<path fill="#333333" d="M41.012,16.052c-0.758,0-1.354,0.281-1.789,0.844s-0.654,1.291-0.654,2.186
		c0,0.883,0.213,1.606,0.639,2.167s1.01,0.84,1.752,0.84c0.758,0,1.348-0.268,1.77-0.805s0.633-1.26,0.633-2.167
		c0-0.945-0.205-1.691-0.615-2.24S41.758,16.052,41.012,16.052z"/>
	<path fill="#333333" d="M92,0.014H4c-2.209,0-4,1.791-4,4v32c0,2.209,1.791,4,4,4h88c2.209,0,4-1.791,4-4v-32
		C96,1.804,94.209,0.014,92,0.014z M11.604,16.111h-2.59v7.495H7.075v-7.495H4.491v-1.582h7.113V16.111z M18.22,23.606h-5.373
		v-9.077h5.162v1.582H14.78v2.139h3v1.576h-3v2.198h3.439V23.606z M27.776,23.606h-1.98l-3.844-5.872
		c-0.199-0.305-0.344-0.551-0.434-0.738h-0.029c0.035,0.313,0.053,0.795,0.053,1.447v5.163h-1.834v-9.077h2.109l3.703,5.707
		c0.246,0.379,0.396,0.62,0.451,0.721h0.029c-0.039-0.219-0.059-0.637-0.059-1.254v-5.174h1.834V23.606z M34.655,23.078
		c-0.617,0.457-1.494,0.686-2.63,0.686c-1.039,0-1.891-0.168-2.555-0.504v-1.939c0.73,0.605,1.561,0.908,2.49,0.908
		c0.527,0,0.923-0.09,1.189-0.271s0.398-0.416,0.398-0.701c0-0.246-0.105-0.479-0.316-0.697c-0.211-0.219-0.767-0.516-1.669-0.891
		c-1.418-0.602-2.127-1.477-2.127-2.625c0-0.844,0.321-1.498,0.964-1.965s1.493-0.701,2.551-0.701c0.887,0,1.631,0.115,2.232,0.346
		v1.816c-0.609-0.414-1.322-0.621-2.139-0.621c-0.476,0-0.857,0.088-1.142,0.262s-0.428,0.406-0.428,0.699
		c0,0.234,0.098,0.451,0.293,0.648s0.678,0.463,1.447,0.799c0.902,0.387,1.523,0.795,1.861,1.225s0.506,0.941,0.506,1.536
		C35.581,21.957,35.272,22.621,34.655,23.078z M44.157,22.444c-0.822,0.881-1.9,1.32-3.232,1.32c-1.301,0-2.357-0.426-3.17-1.279
		s-1.219-1.953-1.219-3.297c0-1.422,0.416-2.578,1.246-3.471s1.926-1.34,3.289-1.34c1.297,0,2.342,0.432,3.133,1.295
		s1.186,1.973,1.186,3.328C45.389,20.414,44.979,21.563,44.157,22.444z M50.24,20.799h-3.462v-1.336h3.462V20.799z M55.795,20.043
		c0,1.2-0.275,2.12-0.828,2.76s-1.346,0.961-2.377,0.961c-0.457,0-0.881-0.078-1.271-0.234v-1.822
		c0.336,0.254,0.719,0.381,1.148,0.381c0.93,0,1.395-0.705,1.395-2.116v-5.443h1.934V20.043z M63.201,23.606l-0.68-2.08h-3.299
		l-0.668,2.08h-2.098l3.322-9.077h2.273l3.258,9.077H63.201z M69.389,20.441h-0.996v3.165h-1.934v-9.077h3.123
		c2.258,0,3.387,0.957,3.387,2.871c0,0.93-0.34,1.676-1.021,2.236S70.412,20.465,69.389,20.441z M79.32,23.606l-0.68-2.08h-3.299
		l-0.668,2.08h-2.098l3.322-9.077h2.273l3.258,9.077H79.32z M90.646,23.606h-1.98l-3.844-5.872
		c-0.199-0.305-0.344-0.551-0.434-0.738h-0.029c0.035,0.313,0.053,0.795,0.053,1.447v5.163h-1.834v-9.077h2.109l3.703,5.707
		c0.246,0.379,0.396,0.62,0.451,0.721h0.029c-0.039-0.219-0.059-0.637-0.059-1.254v-5.174h1.834V23.606z"/>
	<path fill="#333333" d="M77.012,16.094h-0.053c-0.023,0.266-0.076,0.521-0.158,0.768l-1.037,3.17h2.42l-1.031-3.146
		C77.086,16.685,77.039,16.422,77.012,16.094z"/>
	<path fill="#333333" d="M69.248,16.029h-0.855v2.93h0.838c1.137,0,1.705-0.494,1.705-1.482
		C70.936,16.511,70.373,16.029,69.248,16.029z"/>
	<path fill="#333333" d="M60.893,16.094H60.84c-0.023,0.266-0.076,0.521-0.158,0.768l-1.037,3.17h2.42l-1.031-3.146
		C60.967,16.685,60.92,16.422,60.893,16.094z"/>
</g>
<g>
	<g>
		<path fill="#333333" d="M133.545,36.413h-7.123V18.49h-1.402v15.8h-1.244c0.115-1.798-0.93-1.793-0.93-1.793L120.18,18.49h-9.308
			c-0.397,0.086-0.408,0.448-0.408,0.448v11.163L107,29.416c-0.689-0.333-1,0.422-1,0.422v6.909
			c0.089,0.399,0.355,0.511,0.355,0.511h0.888c0.245-3.488,3.221-3.399,3.221-3.399c3.466,0.044,3.421,3.376,3.421,3.376h1.911
			c0.065-3.421,3.177-3.376,3.177-3.376c3.643,0.111,3.387,3.438,3.387,3.438h0.843c0.667-0.2,0.59-1.526,0.59-1.526h1.245
			l-0.012,2.043C133.68,37.814,133.545,36.413,133.545,36.413z M111.518,29.264v-9.31c0.129-0.356,0.394-0.472,0.394-0.472h6.805
			c0.636,0,0.792,0.669,0.792,0.669l1.782,9.111L111.518,29.264L111.518,29.264z"/>
		<g>
			<circle fill="#333333" cx="110.505" cy="37.083" r="2.802"/>
			<circle fill="#FFFFFF" cx="110.505" cy="37.083" r="1.142"/>
		</g>
		<g>
			<circle fill="#333333" cx="119.08" cy="37.083" r="2.802"/>
			<circle fill="#FFFFFF" cx="119.08" cy="37.083" r="1.141"/>
		</g>
		<g>
			<circle fill="#333333" cx="115.578" cy="22.613" r="1.953"/>
			<path fill="#333333" d="M113.125,29.264c0,0-0.357-2.046,0.037-3.238c0.193-0.583,0.611-1.609,1.954-1.169
				c0,0,0.833,0.125,1.053,2.077l0.144,2.33H113.125z"/>
			<path fill="#333333" d="M117.917,29.264l1.854-2.484c0,0,0.643-0.362,0.608,0.326l-1.552,2.158H117.917z"/>
			<polyline fill="#333333" points="119.143,28.556 120.161,29.301 120.833,29.264 119.417,28.151 119.143,28.51 			"/>
			<path fill="#333333" d="M115.813,28.475c0.781,0.535,4.119,0.46,4.014-0.439c0,0,0.189-0.563-1.264-0.575
				c0,0-0.549-0.031-1.668-0.229c0,0-1.037-0.261-1.541-1.228c-0.133-0.313-1.358-0.811-1.437,0.339
				C113.916,26.343,113.736,27.055,115.813,28.475z"/>
		</g>
		<path fill="#333333" d="M133.168,27.945c0,0.394-0.318,0.711-0.71,0.711h-4.644c-0.394,0-0.711-0.317-0.711-0.711v-4.643
			c0-0.393,0.317-0.71,0.711-0.71h4.644c0.394,0,0.71,0.318,0.71,0.71V27.945z"/>
		<path fill="#333333" d="M133.168,34.869c0,0.393-0.318,0.711-0.71,0.711h-4.644c-0.394,0-0.711-0.318-0.711-0.711v-4.644
			c0-0.393,0.317-0.71,0.711-0.71h4.644c0.394,0,0.71,0.318,0.71,0.71V34.869z"/>
	</g>
	<g>
		<path fill="#333333" d="M152.902,0.067l-19.547,9.017v5.405c0.031,0.5,0.328,0.466,0.328,0.466h1.858v24.347
			c0.047,0.547,0.422,0.578,0.422,0.578h16.938h17.925c0,0,0.397-0.031,0.446-0.578V14.955h1.969c0,0,0.314,0.034,0.347-0.466V9.083
			L152.902,0.067z"/>
		<polygon fill="#FFFFFF" points="171.495,10.552 152.84,2.567 135.543,10.552 135.543,12.738 137.831,12.738 137.777,37.676 
			152.84,37.676 169.085,37.676 169.027,12.738 171.495,12.738 		"/>
		<rect x="139.986" y="19.469" fill="#333333" width="26.748" height="18.208"/>
		<rect x="139.986" y="13.859" fill="#333333" width="5.609" height="3.385"/>
		<rect x="146.754" y="13.859" fill="#333333" width="5.609" height="3.385"/>
		<rect x="153.87" y="13.859" fill="#333333" width="5.608" height="3.385"/>
		<rect x="161.125" y="13.859" fill="#333333" width="5.609" height="3.385"/>
		<rect x="142.257" y="25.171" fill="#FFFFFF" width="6.63" height="3.4"/>
		<rect x="142.257" y="29.76" fill="#FFFFFF" width="6.63" height="3.401"/>
		<rect x="142.257" y="34.275" fill="#FFFFFF" width="6.63" height="3.401"/>
		<rect x="150.045" y="34.275" fill="#FFFFFF" width="6.629" height="3.401"/>
		<rect x="150.045" y="29.76" fill="#FFFFFF" width="6.629" height="3.401"/>
		<rect x="157.811" y="34.275" fill="#FFFFFF" width="6.629" height="3.401"/>
	</g>
</g>
<g>
	<path fill="#333333" d="M223.161,25.823h15.177c0,0,0.301,0.064,0.37,0.396v6.399h-21.269v-1.725l-0.77-0.341l-0.604,0.536v7.4
		c0,0,0.359,1.303,1.328,1.465h21.313c0,0,0.911-0.18,1.394-1.363V25.898c0,0-0.352-1.095-1.432-1.431h-13.367
		c0,0,0.073-4.266-0.189-7.216c0,0-0.672-3.39-3.389-6.516c0,0-2.91-3.974-3.223-5.608c0,0-0.643-2.201-4.46-2.609
		c0,0-21.542,0.292-26.45-2.513c0,0-3.221,6.085-3.918,9.723c0,0-0.352,1.734,0.389,1.98c0,0,3.918,1.424,5.263,2.904
		c0,0,2.979,2.435,7.216,4.129c0,0,5.581,2.22,7.305,2.717l-0.013,0.146c0,0-2.783-0.311-2.938,1.219c0,0-1.08,1.949,1.199,2.533
		c0,0,1.139,0.513,2.92,0.513c0,0-0.397,2.57,0.361,2.94c0,0,1.374,0.701,6.473-0.721l0.162,0.021c0,0-1.211,1.905,0.469,2.769
		c0,0,1.563,1.432,3.842-1.446l3.418,1.33c0,0,2.979,0.773,3.01-1.885c0,0,0.936-3.447-4.732-6.896c0,0-5.844-3.797-5.99-5.054
		c0,0-0.262-2.512,2.893-1.899c0,0,2.482,1.432,4.499,3.359c0,0,0.789,3.564,0.731,3.886
		C220.146,22.276,222.932,24.757,223.161,25.823z"/>
	<path fill="#FFFFFF" d="M217.482,36.406h21.236v1.851c0,0-0.137,0.273-0.457,0.32H217.85c0,0-0.229-0.047-0.367-0.32V36.406z"/>
</g>
<g>
	<g>
		<path fill="#333333" d="M269.646,0.216L250.1,9.231v5.406c0.031,0.5,0.328,0.465,0.328,0.465h1.859V39.45
			c0.047,0.547,0.422,0.577,0.422,0.577h16.938h17.926c0,0,0.396-0.03,0.447-0.577V15.103h1.967c0,0,0.314,0.035,0.349-0.465V9.231
			L269.646,0.216z"/>
		<polygon fill="#FFFFFF" points="288.238,10.7 269.584,2.716 252.287,10.7 252.287,12.886 254.575,12.886 254.521,37.825 
			269.584,37.825 285.829,37.825 285.771,12.886 288.238,12.886 		"/>
		<rect x="256.73" y="19.617" fill="#333333" width="26.748" height="18.208"/>
		<rect x="256.73" y="14.008" fill="#333333" width="5.608" height="3.384"/>
		<rect x="263.498" y="14.008" fill="#333333" width="5.609" height="3.384"/>
		<rect x="270.613" y="14.008" fill="#333333" width="5.609" height="3.384"/>
		<rect x="277.87" y="14.008" fill="#333333" width="5.608" height="3.384"/>
		<rect x="259.001" y="25.319" fill="#FFFFFF" width="6.629" height="3.401"/>
		<rect x="259.001" y="29.909" fill="#FFFFFF" width="6.629" height="3.4"/>
		<rect x="259.001" y="34.423" fill="#FFFFFF" width="6.629" height="3.4"/>
		<rect x="266.79" y="34.423" fill="#FFFFFF" width="6.629" height="3.4"/>
		<rect x="266.79" y="29.909" fill="#FFFFFF" width="6.629" height="3.4"/>
		<rect x="274.555" y="34.423" fill="#FFFFFF" width="6.629" height="3.4"/>
	</g>
	<g>
		<path fill="#333333" d="M318.227,33.268c0,0.552-0.453,1-1.01,1h-25.873c-0.559,0-1.01-0.448-1.01-1v-9.979
			c0-0.553,0.451-1,1.01-1h25.873c0.557,0,1.01,0.447,1.01,1V33.268z"/>
		<text transform="matrix(1 0 0 1 291.3623 29.3254)" fill="#FFFFFF" font-family="'MicrosoftYaHei-Bold'" font-size="3.5">TENSO-JAPAN</text>
		<path fill="#333333" d="M293.675,36.475c0,0-0.853,0.87,0,2.031h-2.313v-2.031H293.675z"/>
		<path fill="#333333" d="M301.197,36.475c0,0,0.719,1.133,0,2.031h19.406c0,0-0.72-5.229,3.688-5.229c0,0,4.281-0.094,3.938,4.72
			h3.563v-2.313l-0.453-0.406V29.54l-4.147-7.252h-7.479l-0.031,13.755c0,0,0.145,0.433-0.339,0.433L301.197,36.475L301.197,36.475z
			"/>
		<path fill="#FFFFFF" d="M322.244,24.919h-0.711h-0.711c0,0-0.316,0.06-0.254,0.43v4.315c0,0,0.031,0.179,0.363,0.268h0.602h0.602
			c0.331-0.089,0.362-0.268,0.362-0.268v-4.315C322.561,24.979,322.244,24.919,322.244,24.919z"/>
		<path fill="#FFFFFF" d="M322.898,24.919h3.658l2.983,3.357c0,0,0.22,0.643-0.095,0.643h-5l-0.291,0.114l-0.803,0.886
			c0,0-0.469,0.141-0.453-0.5V24.919z"/>
		<circle fill="#333333" cx="297.301" cy="37.604" r="2.424"/>
		<circle fill="#FFFFFF" cx="297.301" cy="37.604" r="1.604"/>
		<circle fill="#333333" cx="324.384" cy="37.604" r="2.423"/>
		<circle fill="#FFFFFF" cx="324.384" cy="37.604" r="1.603"/>
	</g>
</g>
<g>
	<path fill="#333333" d="M386.883,38.225c0,0.552-0.502,1-1.123,1h-2.23c-0.62,0-1.123-0.448-1.123-1V24.541
		c0-0.553,0.503-1,1.123-1h2.23c0.621,0,1.123,0.447,1.123,1V38.225z"/>
	<path fill="#333333" d="M380.764,35.689v-9.48c0,0-0.486-1.641-7.133-3.19c0,0-1.816-0.532-4.297,1.152l-2.969,1.506
		c0,0-0.436,0.402-3.094,0.49l-6.92-0.27c0,0-1.674-0.091-1.769,1.284c0,0-0.345,1.75,1.97,1.922c0,0,6.78,1.047,9.313,1.172
		c0,0,2.438,0.063,2.344,0.938c0,0,0.375,1.156-1.844,1.219l-11.799-1.25c0,0-0.982,0.063-3.451-2.469c0,0-5.344-7.563-7.344-8.031
		c0,0-2.438-1.063-1.938,1.563c0,0-0.125,0.53,2.459,4.155l5.791,8.625c0,0,0.625,1.083,1.875,1.542l8.084,3.292h2.625
		c0,0,14.75-3.417,16.375-3.708C379.043,36.151,380.15,35.978,380.764,35.689z"/>
	<path fill="#333333" d="M345.445,20.227c0,0,1.902,1.626,2.576,2.491c0,0,4.359,5.294,4.724,5.536h0.226
		c0,0,0.553-1.713,0.535-2.06c0,0-4.584-6.399-6.591-6.78C346.915,19.414,345.376,19.067,345.445,20.227z"/>
	<path fill="#333333" d="M349.77,20.192l4.812,5.018c0,0,1.106-0.779,2.214-0.831c0,0-4.773-4.999-5.467-4.896
		C351.327,19.483,349.787,19.292,349.77,20.192z"/>
	<polygon fill="#333333" points="352.918,5.977 352.918,18.977 363.273,24.256 363.273,11.275 	"/>
	<polygon fill="#333333" points="374.189,5.977 374.189,18.977 363.834,24.256 363.834,11.275 	"/>
	<g>
		<polygon fill="#C6000D" points="364.426,0.471 353.789,5.908 352.918,5.463 363.553,0.025 		"/>
		<polygon fill="#C6000D" points="366.378,1.47 357.521,5.997 356.648,5.552 365.507,1.024 		"/>
		<polygon fill="#C6000D" points="366.482,3.413 359.475,6.996 358.602,6.55 365.611,2.967 		"/>
		<polygon fill="#C6000D" points="368.436,4.411 361.428,7.994 360.555,7.548 367.564,3.965 		"/>
		<polygon fill="#C6000D" points="373.318,5.908 362.682,0.472 363.553,0.025 374.189,5.462 		"/>
		<polygon fill="#C6000D" points="363.553,10.899 352.918,5.463 353.789,5.017 364.425,10.454 		"/>
		<polygon fill="#C6000D" points="361.428,7.994 356.648,5.552 357.521,5.106 362.299,7.548 		"/>
		<polygon fill="#C6000D" points="369.518,5.854 364.74,3.413 365.611,2.967 370.391,5.409 		"/>
		<polygon fill="#C6000D" points="370.391,5.409 361.637,9.884 360.764,9.438 369.518,4.963 		"/>
		<polygon fill="#C6000D" points="374.189,5.463 363.555,10.899 362.682,10.454 373.318,5.018 		"/>
	</g>
</g>
</svg>
