<?xml version="1.0" encoding="utf-8"?>
<!-- Generator: Adobe Illustrator 14.0.0, SVG Export Plug-In . SVG Version: 6.00 Build 43363)  -->
<!DOCTYPE svg PUBLIC "-//W3C//DTD SVG 1.1//EN" "http://www.w3.org/Graphics/SVG/1.1/DTD/svg11.dtd">
<svg version="1.1" id="图层_1" xmlns="http://www.w3.org/2000/svg" xmlns:xlink="http://www.w3.org/1999/xlink" x="0px" y="0px"
	 width="67.589px" height="40.027px" viewBox="0 0 67.589 40.027" enable-background="new 0 0 67.589 40.027" xml:space="preserve">
<g>
	<ellipse fill="#333333" cx="-223.876" cy="11.819" rx="9.204" ry="11.819"/>
	<path fill="#333333" d="M-231.277,26.313c0,0,6.709,12.077,14.844,0c0,0,8.173-1.081,7.897,13.271c0,0-0.113,0.403-0.364,0.42
		h-29.726c0,0-0.225,0.047-0.353-0.268C-238.979,39.737-240.02,26.397-231.277,26.313z"/>
</g>
<g>
	<g>
		<path fill="#333333" d="M-186.406,0.613c0,0-14.197,0.09-11.864,15.756c0,0,0,6.583,11.833,23.583
			c11.833-17,11.833-23.583,11.833-23.583C-172.271,0.702-186.406,0.613-186.406,0.613z"/>
		<circle fill="#FFFFFF" cx="-186.437" cy="13.188" r="6.788"/>
	</g>
	<text transform="matrix(1 0 0 1 -174.3442 6.6458)" fill="#333333" font-family="'MicrosoftYaHei-Bold'" font-size="8">TENSO-JAPAN</text>
</g>
<g>
	<path fill="#333333" d="M-10,36.005c0,2.209-1.791,4-4,4h-88c-2.209,0-4-1.791-4-4v-32c0-2.209,1.791-4,4-4h88c2.209,0,4,1.791,4,4
		V36.005z"/>
	<text transform="matrix(1 0 0 1 -102.2881 23.5969)" fill="#FFFFFF" font-family="'MicrosoftYaHei-Bold'" font-size="12">TENSO-JAPAN</text>
</g>
<g>
	<path fill="#333333" d="M27.545,36.413h-7.123V18.49H19.02v15.8h-1.244c0.114-1.798-0.931-1.793-0.931-1.793L14.18,18.49H4.873
		c-0.397,0.086-0.408,0.448-0.408,0.448v11.163L1,29.416c-0.689-0.333-1,0.422-1,0.422v6.909c0.089,0.399,0.355,0.511,0.355,0.511
		h0.888c0.245-3.488,3.221-3.399,3.221-3.399c3.465,0.044,3.421,3.376,3.421,3.376h1.911c0.066-3.421,3.176-3.376,3.176-3.376
		c3.643,0.111,3.388,3.438,3.388,3.438h0.842c0.667-0.2,0.59-1.526,0.59-1.526h1.245l-0.011,2.043
		C27.679,37.814,27.545,36.413,27.545,36.413z M5.518,29.264v-9.31c0.128-0.356,0.393-0.472,0.393-0.472h6.805
		c0.636,0,0.792,0.669,0.792,0.669l1.782,9.111L5.518,29.264L5.518,29.264z"/>
	<g>
		<circle fill="#333333" cx="4.505" cy="37.083" r="2.802"/>
		<circle fill="#FFFFFF" cx="4.505" cy="37.083" r="1.142"/>
	</g>
	<g>
		<circle fill="#333333" cx="13.08" cy="37.083" r="2.802"/>
		<circle fill="#FFFFFF" cx="13.08" cy="37.083" r="1.141"/>
	</g>
	<g>
		<circle fill="#333333" cx="9.578" cy="22.613" r="1.953"/>
		<path fill="#333333" d="M7.125,29.264c0,0-0.358-2.046,0.037-3.238c0.193-0.583,0.611-1.609,1.954-1.169
			c0,0,0.833,0.125,1.053,2.077l0.144,2.33H7.125z"/>
		<path fill="#333333" d="M11.917,29.264l1.855-2.484c0,0,0.642-0.362,0.608,0.326l-1.552,2.158H11.917z"/>
		<polyline fill="#333333" points="13.142,28.556 14.161,29.301 14.833,29.264 13.417,28.151 13.142,28.51 		"/>
		<path fill="#333333" d="M9.812,28.475c0.782,0.535,4.12,0.46,4.014-0.439c0,0,0.19-0.563-1.263-0.575c0,0-0.55-0.031-1.669-0.229
			c0,0-1.037-0.261-1.541-1.228c-0.133-0.313-1.358-0.811-1.436,0.339C7.916,26.343,7.737,27.055,9.812,28.475z"/>
	</g>
	<path fill="#333333" d="M27.168,27.945c0,0.394-0.318,0.711-0.71,0.711h-4.644c-0.393,0-0.711-0.317-0.711-0.711v-4.643
		c0-0.393,0.318-0.71,0.711-0.71h4.644c0.393,0,0.71,0.318,0.71,0.71V27.945z"/>
	<path fill="#333333" d="M27.168,34.869c0,0.393-0.318,0.711-0.71,0.711h-4.644c-0.393,0-0.711-0.318-0.711-0.711v-4.644
		c0-0.393,0.318-0.71,0.711-0.71h4.644c0.393,0,0.71,0.318,0.71,0.71V34.869z"/>
</g>
<path fill="#333333" d="M46.902,0.067L27.355,9.083v5.405c0.031,0.5,0.328,0.466,0.328,0.466h1.859v24.347
	c0.047,0.547,0.422,0.578,0.422,0.578h16.938h17.926c0,0,0.396-0.031,0.446-0.578V14.955h1.968c0,0,0.314,0.034,0.348-0.466V9.083
	L46.902,0.067z M65.496,12.738h-2.469l0.059,24.938H46.839H31.777l0.054-24.938h-2.288v-2.186l17.296-7.985l18.656,7.985V12.738z"/>
<rect x="33.986" y="13.859" fill="#333333" width="5.609" height="3.385"/>
<rect x="41.037" y="13.859" fill="#333333" width="5.609" height="3.385"/>
<rect x="48.154" y="13.859" fill="#333333" width="5.608" height="3.385"/>
<rect x="55.125" y="13.859" fill="#333333" width="5.609" height="3.385"/>
<path fill="#333333" d="M33.986,19.469v18.208h26.749V19.469H33.986z M42.886,37.676h-6.629v-3.401h6.629V37.676z M42.886,33.161
	h-6.629V29.76h6.629V33.161z M42.886,28.572h-6.629v-3.4h6.629V28.572z M50.673,37.676h-6.629v-3.401h6.629V37.676z M50.673,33.161
	h-6.629V29.76h6.629V33.161z M58.44,37.676h-6.629v-3.401h6.629V37.676z"/>
<g>
	<path fill="#333333" d="M117.162,25.823h15.176c0,0,0.302,0.064,0.371,0.396v6.399h-21.27v-1.725l-0.77-0.341l-0.604,0.536v7.4
		c0,0,0.359,1.303,1.329,1.465h21.313c0,0,0.91-0.18,1.393-1.363V25.898c0,0-0.352-1.095-1.432-1.431h-13.366
		c0,0,0.073-4.266-0.189-7.216c0,0-0.672-3.39-3.389-6.516c0,0-2.911-3.974-3.224-5.608c0,0-0.643-2.201-4.459-2.609
		c0,0-21.543,0.292-26.451-2.513c0,0-3.221,6.085-3.918,9.723c0,0-0.351,1.734,0.389,1.98c0,0,3.919,1.424,5.264,2.904
		c0,0,2.979,2.435,7.215,4.129c0,0,5.582,2.22,7.305,2.717l-0.012,0.146c0,0-2.783-0.311-2.938,1.219c0,0-1.081,1.949,1.198,2.533
		c0,0,1.14,0.513,2.921,0.513c0,0-0.397,2.57,0.36,2.94c0,0,1.375,0.701,6.473-0.721l0.163,0.021c0,0-1.212,1.905,0.469,2.769
		c0,0,1.563,1.432,3.841-1.446l3.418,1.33c0,0,2.98,0.773,3.01-1.885c0,0,0.936-3.447-4.732-6.896c0,0-5.844-3.797-5.989-5.054
		c0,0-0.263-2.512,2.892-1.899c0,0,2.483,1.432,4.5,3.359c0,0,0.789,3.564,0.73,3.886C114.146,22.276,116.932,24.757,117.162,25.823
		z"/>
	<path fill="#FFFFFF" d="M111.483,36.406h21.236v1.851c0,0-0.138,0.273-0.457,0.32h-20.413c0,0-0.229-0.047-0.366-0.32V36.406z"/>
</g>
<g>
	<g>
		<path fill="#333333" d="M163.646,0.216L144.1,9.231v5.406c0.03,0.5,0.328,0.465,0.328,0.465h1.858V39.45
			c0.047,0.547,0.422,0.577,0.422,0.577h16.938h17.925c0,0,0.397-0.03,0.447-0.577V15.103h1.968c0,0,0.314,0.035,0.349-0.465V9.231
			L163.646,0.216z"/>
		<polygon fill="#FFFFFF" points="182.239,10.7 163.583,2.716 146.287,10.7 146.287,12.886 148.576,12.886 148.521,37.825 
			163.583,37.825 179.83,37.825 179.771,12.886 182.239,12.886 		"/>
		<rect x="150.73" y="19.617" fill="#333333" width="26.749" height="18.208"/>
		<rect x="150.73" y="14.008" fill="#333333" width="5.609" height="3.384"/>
		<rect x="157.498" y="14.008" fill="#333333" width="5.609" height="3.384"/>
		<rect x="164.614" y="14.008" fill="#333333" width="5.609" height="3.384"/>
		<rect x="171.871" y="14.008" fill="#333333" width="5.608" height="3.384"/>
		<rect x="153.001" y="25.319" fill="#FFFFFF" width="6.629" height="3.401"/>
		<rect x="153.001" y="29.909" fill="#FFFFFF" width="6.629" height="3.4"/>
		<rect x="153.001" y="34.423" fill="#FFFFFF" width="6.629" height="3.4"/>
		<rect x="160.791" y="34.423" fill="#FFFFFF" width="6.629" height="3.4"/>
		<rect x="160.791" y="29.909" fill="#FFFFFF" width="6.629" height="3.4"/>
		<rect x="168.555" y="34.423" fill="#FFFFFF" width="6.629" height="3.4"/>
	</g>
	<g>
		<path fill="#333333" d="M212.227,33.268c0,0.552-0.453,1-1.011,1h-25.872c-0.56,0-1.011-0.448-1.011-1v-9.979
			c0-0.553,0.451-1,1.011-1h25.872c0.558,0,1.011,0.447,1.011,1V33.268z"/>
		<text transform="matrix(1 0 0 1 185.3628 29.3254)" fill="#FFFFFF" font-family="'MicrosoftYaHei-Bold'" font-size="3.5">TENSO-JAPAN</text>
		<path fill="#333333" d="M187.675,36.475c0,0-0.854,0.87,0,2.031h-2.313v-2.031H187.675z"/>
		<path fill="#333333" d="M195.197,36.475c0,0,0.719,1.133,0,2.031h19.406c0,0-0.719-5.229,3.688-5.229c0,0,4.281-0.094,3.938,4.72
			h3.563v-2.313l-0.453-0.406V29.54l-4.147-7.252h-7.479l-0.03,13.755c0,0,0.144,0.433-0.339,0.433L195.197,36.475L195.197,36.475z"
			/>
		<path fill="#FFFFFF" d="M216.244,24.919h-0.711h-0.711c0,0-0.316,0.06-0.253,0.43v4.315c0,0,0.031,0.179,0.363,0.268h0.601h0.602
			c0.332-0.089,0.363-0.268,0.363-0.268v-4.315C216.561,24.979,216.244,24.919,216.244,24.919z"/>
		<path fill="#FFFFFF" d="M216.899,24.919h3.657l2.984,3.357c0,0,0.219,0.643-0.095,0.643h-5l-0.291,0.114l-0.803,0.886
			c0,0-0.47,0.141-0.453-0.5V24.919z"/>
		<circle fill="#333333" cx="191.3" cy="37.604" r="2.424"/>
		<circle fill="#FFFFFF" cx="191.3" cy="37.604" r="1.604"/>
		<circle fill="#333333" cx="218.384" cy="37.604" r="2.423"/>
		<circle fill="#FFFFFF" cx="218.384" cy="37.604" r="1.603"/>
	</g>
</g>
<g>
	<path fill="#333333" d="M280.882,38.225c0,0.552-0.502,1-1.122,1h-2.231c-0.619,0-1.123-0.448-1.123-1V24.541
		c0-0.553,0.504-1,1.123-1h2.231c0.62,0,1.122,0.447,1.122,1V38.225z"/>
	<path fill="#333333" d="M274.764,35.689v-9.48c0,0-0.487-1.641-7.134-3.19c0,0-1.815-0.532-4.297,1.152l-2.969,1.506
		c0,0-0.436,0.402-3.094,0.49l-6.919-0.27c0,0-1.675-0.091-1.769,1.284c0,0-0.345,1.75,1.969,1.922c0,0,6.781,1.047,9.313,1.172
		c0,0,2.438,0.063,2.344,0.938c0,0,0.375,1.156-1.844,1.219l-11.799-1.25c0,0-0.982,0.063-3.451-2.469c0,0-5.344-7.563-7.344-8.031
		c0,0-2.438-1.063-1.938,1.563c0,0-0.125,0.53,2.459,4.155l5.791,8.625c0,0,0.625,1.083,1.875,1.542l8.084,3.292h2.625
		c0,0,14.75-3.417,16.375-3.708C273.042,36.151,274.151,35.978,274.764,35.689z"/>
	<path fill="#333333" d="M239.445,20.227c0,0,1.902,1.626,2.577,2.491c0,0,4.358,5.294,4.724,5.536h0.226
		c0,0,0.553-1.713,0.534-2.06c0,0-4.584-6.399-6.59-6.78C240.916,19.414,239.376,19.067,239.445,20.227z"/>
	<path fill="#333333" d="M243.77,20.192l4.812,5.018c0,0,1.105-0.779,2.213-0.831c0,0-4.773-4.999-5.467-4.896
		C245.328,19.483,243.787,19.292,243.77,20.192z"/>
	<polygon fill="#333333" points="246.917,5.977 246.917,18.977 257.273,24.256 257.273,11.275 	"/>
	<polygon fill="#333333" points="268.189,5.977 268.189,18.977 257.833,24.256 257.833,11.275 	"/>
	<g>
		<polygon fill="#C6000D" points="258.425,0.471 247.789,5.908 246.917,5.463 257.553,0.025 		"/>
		<polygon fill="#C6000D" points="260.378,1.47 251.521,5.997 250.649,5.552 259.507,1.024 		"/>
		<polygon fill="#C6000D" points="260.482,3.413 253.475,6.996 252.602,6.55 259.611,2.967 		"/>
		<polygon fill="#C6000D" points="262.436,4.411 255.427,7.994 254.555,7.548 261.564,3.965 		"/>
		<polygon fill="#C6000D" points="267.318,5.908 256.682,0.472 257.553,0.025 268.189,5.462 		"/>
		<polygon fill="#C6000D" points="257.553,10.899 246.917,5.463 247.789,5.017 258.425,10.454 		"/>
		<polygon fill="#C6000D" points="255.427,7.994 250.649,5.552 251.521,5.106 256.298,7.548 		"/>
		<polygon fill="#C6000D" points="263.518,5.854 258.74,3.413 259.611,2.967 264.39,5.409 		"/>
		<polygon fill="#C6000D" points="264.39,5.409 255.637,9.884 254.764,9.438 263.517,4.963 		"/>
		<polygon fill="#C6000D" points="268.189,5.463 257.555,10.899 256.682,10.454 267.318,5.018 		"/>
	</g>
</g>
</svg>
