<?xml version="1.0" encoding="utf-8"?>
<!-- Generator: Adobe Illustrator 14.0.0, SVG Export Plug-In . SVG Version: 6.00 Build 43363)  -->
<!DOCTYPE svg PUBLIC "-//W3C//DTD SVG 1.1//EN" "http://www.w3.org/Graphics/SVG/1.1/DTD/svg11.dtd">
<svg version="1.1" id="图层_1" xmlns="http://www.w3.org/2000/svg" xmlns:xlink="http://www.w3.org/1999/xlink" x="0px" y="0px"
	 width="56.51px" height="40.028px" viewBox="0 0 56.51 40.028" enable-background="new 0 0 56.51 40.028" xml:space="preserve">
<g>
	<ellipse fill="#333333" cx="-301.466" cy="11.819" rx="9.204" ry="11.819"/>
	<path fill="#333333" d="M-308.866,26.313c0,0,6.709,12.077,14.844,0c0,0,8.173-1.081,7.897,13.271c0,0-0.113,0.404-0.364,0.42
		h-29.726c0,0-0.225,0.047-0.353-0.267C-316.568,39.737-317.609,26.397-308.866,26.313z"/>
</g>
<g>
	<g>
		<path fill="#333333" d="M-263.996,0.613c0,0-14.197,0.089-11.864,15.755c0,0,0,6.583,11.833,23.583
			c11.833-17,11.833-23.583,11.833-23.583C-249.861,0.702-263.996,0.613-263.996,0.613z"/>
		<circle fill="#FFFFFF" cx="-264.026" cy="13.188" r="6.788"/>
	</g>
	<text transform="matrix(1 0 0 1 -251.9336 6.6455)" fill="#333333" font-family="'MicrosoftYaHei-Bold'" font-size="8">TENSO-JAPAN</text>
</g>
<g>
	<path fill="#333333" d="M-87.589,36.005c0,2.209-1.791,4-4,4h-88c-2.209,0-4-1.791-4-4v-32c0-2.209,1.791-4,4-4h88
		c2.209,0,4,1.791,4,4V36.005z"/>
	<text transform="matrix(1 0 0 1 -179.8774 23.5972)" fill="#FFFFFF" font-family="'MicrosoftYaHei-Bold'" font-size="12">TENSO-JAPAN</text>
</g>
<g>
	<g>
		<path fill="#333333" d="M-50.044,36.413h-7.123V18.49h-1.402v15.799h-1.244c0.114-1.798-0.931-1.793-0.931-1.793l-2.666-14.006
			h-9.308c-0.397,0.085-0.408,0.448-0.408,0.448v11.163l-3.465-0.685c-0.689-0.333-1,0.422-1,0.422v6.909
			c0.089,0.4,0.355,0.511,0.355,0.511h0.888c0.245-3.488,3.221-3.399,3.221-3.399c3.465,0.044,3.421,3.376,3.421,3.376h1.911
			c0.066-3.421,3.176-3.376,3.176-3.376c3.643,0.111,3.388,3.437,3.388,3.437h0.842c0.667-0.2,0.59-1.526,0.59-1.526h1.245
			l-0.011,2.043C-49.911,37.814-50.044,36.413-50.044,36.413z M-72.072,29.264v-9.31c0.128-0.356,0.393-0.471,0.393-0.471h6.805
			c0.636,0,0.792,0.669,0.792,0.669l1.782,9.111H-72.072z"/>
		<g>
			<circle fill="#333333" cx="-73.084" cy="37.083" r="2.802"/>
			<circle fill="#FFFFFF" cx="-73.084" cy="37.083" r="1.142"/>
		</g>
		<g>
			<circle fill="#333333" cx="-64.51" cy="37.083" r="2.802"/>
			<circle fill="#FFFFFF" cx="-64.51" cy="37.083" r="1.141"/>
		</g>
		<g>
			<circle fill="#333333" cx="-68.012" cy="22.613" r="1.953"/>
			<path fill="#333333" d="M-70.465,29.264c0,0-0.358-2.046,0.037-3.238c0.193-0.583,0.611-1.61,1.954-1.169
				c0,0,0.833,0.125,1.053,2.077l0.144,2.33H-70.465z"/>
			<path fill="#333333" d="M-65.672,29.264l1.855-2.484c0,0,0.642-0.363,0.608,0.326l-1.552,2.158H-65.672z"/>
			<polyline fill="#333333" points="-64.448,28.556 -63.428,29.301 -62.757,29.264 -64.172,28.151 -64.448,28.51 			"/>
			<path fill="#333333" d="M-67.778,28.475c0.782,0.535,4.12,0.46,4.014-0.44c0,0,0.19-0.563-1.263-0.575
				c0,0-0.55-0.031-1.669-0.229c0,0-1.037-0.261-1.541-1.228c-0.133-0.313-1.358-0.81-1.436,0.339
				C-69.674,26.343-69.853,27.055-67.778,28.475z"/>
		</g>
		<path fill="#333333" d="M-50.421,27.945c0,0.393-0.318,0.711-0.71,0.711h-4.644c-0.393,0-0.711-0.318-0.711-0.711v-4.643
			c0-0.393,0.318-0.71,0.711-0.71h4.644c0.393,0,0.71,0.318,0.71,0.71V27.945z"/>
		<path fill="#333333" d="M-50.421,34.869c0,0.393-0.318,0.711-0.71,0.711h-4.644c-0.393,0-0.711-0.318-0.711-0.711v-4.643
			c0-0.393,0.318-0.71,0.711-0.71h4.644c0.393,0,0.71,0.318,0.71,0.71V34.869z"/>
	</g>
	<g>
		<path fill="#333333" d="M-30.687,0.067l-19.547,9.016v5.406c0.031,0.5,0.328,0.465,0.328,0.465h1.859v24.347
			c0.047,0.547,0.422,0.578,0.422,0.578h16.938h17.925c0,0,0.397-0.031,0.447-0.578V14.955h1.968c0,0,0.314,0.035,0.347-0.465V9.083
			L-30.687,0.067z"/>
		<polygon fill="#FFFFFF" points="-12.095,10.552 -30.75,2.567 -48.046,10.552 -48.046,12.738 -45.759,12.738 -45.812,37.676 
			-30.75,37.676 -14.504,37.676 -14.562,12.738 -12.095,12.738 		"/>
		<rect x="-43.604" y="19.469" fill="#333333" width="26.749" height="18.208"/>
		<rect x="-43.604" y="13.859" fill="#333333" width="5.609" height="3.384"/>
		<rect x="-36.835" y="13.859" fill="#333333" width="5.609" height="3.384"/>
		<rect x="-29.719" y="13.859" fill="#333333" width="5.609" height="3.384"/>
		<rect x="-22.464" y="13.859" fill="#333333" width="5.609" height="3.384"/>
		<rect x="-41.332" y="25.171" fill="#FFFFFF" width="6.629" height="3.401"/>
		<rect x="-41.332" y="29.76" fill="#FFFFFF" width="6.629" height="3.401"/>
		<rect x="-41.332" y="34.275" fill="#FFFFFF" width="6.629" height="3.401"/>
		<rect x="-33.544" y="34.275" fill="#FFFFFF" width="6.629" height="3.401"/>
		<rect x="-33.544" y="29.76" fill="#FFFFFF" width="6.629" height="3.401"/>
		<rect x="-25.779" y="34.275" fill="#FFFFFF" width="6.629" height="3.401"/>
	</g>
</g>
<g>
	<path fill="#333333" d="M39.571,25.824h15.177c0,0,0.301,0.064,0.37,0.395v6.399H33.849v-1.724l-0.769-0.341l-0.604,0.536v7.401
		c0,0,0.36,1.302,1.329,1.464h21.313c0,0,0.911-0.179,1.393-1.363V25.898c0,0-0.351-1.095-1.431-1.431H41.712
		c0,0,0.073-4.266-0.189-7.216c0,0-0.672-3.389-3.389-6.515c0,0-2.911-3.974-3.223-5.609c0,0-0.643-2.201-4.46-2.609
		c0,0-21.542,0.292-26.45-2.513c0,0-3.221,6.085-3.918,9.723c0,0-0.351,1.734,0.388,1.98c0,0,3.919,1.424,5.263,2.905
		c0,0,2.98,2.434,7.216,4.128c0,0,5.581,2.22,7.304,2.717l-0.012,0.147c0,0-2.783-0.311-2.938,1.219c0,0-1.081,1.949,1.198,2.533
		c0,0,1.14,0.512,2.921,0.512c0,0-0.398,2.571,0.361,2.941c0,0,1.374,0.701,6.472-0.721l0.163,0.022c0,0-1.211,1.905,0.469,2.768
		c0,0,1.563,1.432,3.841-1.446l3.418,1.33c0,0,2.98,0.773,3.01-1.885c0,0,0.935-3.447-4.733-6.895c0,0-5.843-3.797-5.989-5.054
		c0,0-0.263-2.512,2.892-1.899c0,0,2.483,1.431,4.499,3.359c0,0,0.789,3.564,0.731,3.886C36.557,22.276,39.343,24.757,39.571,25.824
		z"/>
	<path fill="#FFFFFF" d="M33.894,36.407H55.13v1.85c0,0-0.137,0.274-0.457,0.32H34.26c0,0-0.229-0.046-0.366-0.32V36.407z"/>
</g>
<g>
	<g>
		<path fill="#333333" d="M86.057,0.216L66.51,9.231v5.406c0.031,0.5,0.328,0.465,0.328,0.465h1.859V39.45
			c0.047,0.547,0.422,0.578,0.422,0.578h16.938h17.925c0,0,0.397-0.031,0.447-0.578V15.103h1.968c0,0,0.314,0.035,0.348-0.465V9.231
			L86.057,0.216z"/>
		<polygon fill="#FFFFFF" points="104.649,10.7 85.995,2.716 68.698,10.7 68.698,12.886 70.985,12.886 70.932,37.825 85.995,37.825 
			102.24,37.825 102.182,12.886 104.649,12.886 		"/>
		<rect x="73.141" y="19.617" fill="#333333" width="26.749" height="18.208"/>
		<rect x="73.141" y="14.008" fill="#333333" width="5.609" height="3.384"/>
		<rect x="79.909" y="14.008" fill="#333333" width="5.609" height="3.384"/>
		<rect x="87.025" y="14.008" fill="#333333" width="5.609" height="3.384"/>
		<rect x="94.28" y="14.008" fill="#333333" width="5.609" height="3.384"/>
		<rect x="75.412" y="25.319" fill="#FFFFFF" width="6.629" height="3.401"/>
		<rect x="75.412" y="29.909" fill="#FFFFFF" width="6.629" height="3.401"/>
		<rect x="75.412" y="34.423" fill="#FFFFFF" width="6.629" height="3.401"/>
		<rect x="83.2" y="34.423" fill="#FFFFFF" width="6.629" height="3.401"/>
		<rect x="83.2" y="29.909" fill="#FFFFFF" width="6.629" height="3.401"/>
		<rect x="90.965" y="34.423" fill="#FFFFFF" width="6.629" height="3.401"/>
	</g>
	<g>
		<path fill="#333333" d="M134.637,33.268c0,0.552-0.453,1-1.01,1h-25.873c-0.559,0-1.01-0.448-1.01-1v-9.98c0-0.552,0.451-1,1.01-1
			h25.873c0.557,0,1.01,0.448,1.01,1V33.268z"/>
		<text transform="matrix(1 0 0 1 107.7729 29.3252)" fill="#FFFFFF" font-family="'MicrosoftYaHei-Bold'" font-size="3.5">TENSO-JAPAN</text>
		<path fill="#333333" d="M110.085,36.475c0,0-0.853,0.87,0,2.031h-2.313v-2.031H110.085z"/>
		<path fill="#333333" d="M117.608,36.475c0,0,0.719,1.133,0,2.031h19.406c0,0-0.719-5.228,3.688-5.228c0,0,4.281-0.094,3.938,4.719
			h3.563v-2.313l-0.453-0.406V29.54l-4.147-7.252h-7.479l-0.031,13.755c0,0,0.144,0.433-0.339,0.433H117.608z"/>
		<path fill="#FFFFFF" d="M138.655,24.919h-0.711h-0.711c0,0-0.316,0.06-0.253,0.43v4.315c0,0,0.031,0.179,0.363,0.268h0.601h0.601
			c0.332-0.089,0.363-0.268,0.363-0.268v-4.315C138.971,24.979,138.655,24.919,138.655,24.919z"/>
		<path fill="#FFFFFF" d="M139.31,24.919h3.657l2.984,3.358c0,0,0.219,0.642-0.094,0.642h-5l-0.291,0.114l-0.803,0.886
			c0,0-0.469,0.141-0.453-0.5L139.31,24.919z"/>
		<circle fill="#333333" cx="113.711" cy="37.604" r="2.424"/>
		<circle fill="#FFFFFF" cx="113.711" cy="37.604" r="1.604"/>
		<circle fill="#333333" cx="140.795" cy="37.604" r="2.423"/>
		<circle fill="#FFFFFF" cx="140.795" cy="37.604" r="1.603"/>
	</g>
</g>
<g>
	<path fill="#333333" d="M203.293,38.225c0,0.552-0.502,1-1.123,1h-2.231c-0.62,0-1.123-0.448-1.123-1V24.541
		c0-0.552,0.503-1,1.123-1h2.231c0.621,0,1.123,0.448,1.123,1V38.225z"/>
	<path fill="#333333" d="M197.174,35.689v-9.481c0,0-0.487-1.64-7.133-3.19c0,0-1.816-0.532-4.297,1.152l-2.969,1.506
		c0,0-0.436,0.402-3.094,0.49l-6.919-0.269c0,0-1.675-0.091-1.769,1.284c0,0-0.344,1.75,1.969,1.922c0,0,6.781,1.047,9.313,1.172
		c0,0,2.438,0.063,2.344,0.938c0,0,0.375,1.156-1.844,1.219l-11.799-1.25c0,0-0.982,0.063-3.451-2.469c0,0-5.344-7.563-7.344-8.031
		c0,0-2.438-1.063-1.938,1.563c0,0-0.125,0.531,2.459,4.156l5.791,8.625c0,0,0.625,1.083,1.875,1.542l8.084,3.292h2.625
		c0,0,14.75-3.417,16.375-3.708C195.454,36.151,196.562,35.978,197.174,35.689z"/>
	<path fill="#333333" d="M161.856,20.227c0,0,1.902,1.626,2.577,2.491c0,0,4.359,5.294,4.723,5.536h0.226
		c0,0,0.553-1.713,0.535-2.059c0,0-4.584-6.4-6.591-6.781C163.326,19.414,161.787,19.067,161.856,20.227z"/>
	<path fill="#333333" d="M166.18,20.192l4.811,5.017c0,0,1.106-0.779,2.214-0.831c0,0-4.774-4.999-5.467-4.896
		C167.738,19.483,166.198,19.292,166.18,20.192z"/>
	<polygon fill="#333333" points="169.329,5.977 169.329,18.977 179.684,24.256 179.684,11.275 	"/>
	<polygon fill="#333333" points="190.6,5.977 190.6,18.977 180.245,24.256 180.245,11.275 	"/>
	<g>
		<polygon fill="#C6000D" points="180.836,0.471 170.2,5.908 169.329,5.463 179.963,0.025 		"/>
		<polygon fill="#C6000D" points="182.789,1.47 173.931,5.997 173.06,5.552 181.917,1.024 		"/>
		<polygon fill="#C6000D" points="182.893,3.413 175.885,6.996 175.012,6.55 182.022,2.967 		"/>
		<polygon fill="#C6000D" points="184.846,4.411 177.837,7.994 176.965,7.548 183.975,3.965 		"/>
		<polygon fill="#C6000D" points="189.729,5.908 179.092,0.472 179.963,0.025 190.6,5.462 		"/>
		<polygon fill="#C6000D" points="179.963,10.899 169.329,5.463 170.2,5.017 180.835,10.454 		"/>
		<polygon fill="#C6000D" points="177.837,7.994 173.06,5.552 173.931,5.106 178.709,7.548 		"/>
		<polygon fill="#C6000D" points="185.928,5.854 181.151,3.413 182.022,2.967 186.8,5.409 		"/>
		<polygon fill="#C6000D" points="186.8,5.409 178.047,9.884 177.174,9.438 185.927,4.963 		"/>
		<polygon fill="#C6000D" points="190.6,5.463 179.965,10.899 179.092,10.454 189.729,5.018 		"/>
	</g>
</g>
</svg>
