<?xml version="1.0" encoding="utf-8"?>
<!-- Generator: Adobe Illustrator 14.0.0, SVG Export Plug-In . SVG Version: 6.00 Build 43363)  -->
<!DOCTYPE svg PUBLIC "-//W3C//DTD SVG 1.1//EN" "http://www.w3.org/Graphics/SVG/1.1/DTD/svg11.dtd">
<svg version="1.1" id="图层_1" xmlns="http://www.w3.org/2000/svg" xmlns:xlink="http://www.w3.org/1999/xlink" x="0px" y="0px"
	 width="81.691px" height="40.027px" viewBox="0 0 81.691 40.027" enable-background="new 0 0 81.691 40.027" xml:space="preserve">
<g>
	<ellipse fill="#333333" cx="-367.976" cy="11.819" rx="9.204" ry="11.819"/>
	<path fill="#333333" d="M-375.376,26.313c0,0,6.709,12.077,14.844,0c0,0,8.174-1.081,7.897,13.271c0,0-0.113,0.403-0.364,0.42
		h-29.726c0,0-0.226,0.047-0.354-0.268C-383.079,39.737-384.119,26.397-375.376,26.313z"/>
</g>
<g>
	<g>
		<path fill="#333333" d="M-330.506,0.613c0,0-14.197,0.09-11.864,15.756c0,0,0,6.583,11.833,23.583
			c11.833-17,11.833-23.583,11.833-23.583C-316.371,0.702-330.506,0.613-330.506,0.613z"/>
		<circle fill="#FFFFFF" cx="-330.537" cy="13.188" r="6.788"/>
	</g>
	<text transform="matrix(1 0 0 1 -318.4436 6.6458)" fill="#333333" font-family="'MicrosoftYaHei-Bold'" font-size="8">TENSO-JAPAN</text>
</g>
<g>
	<path fill="#333333" d="M-154.1,36.005c0,2.209-1.791,4-4,4h-88c-2.209,0-4-1.791-4-4v-32c0-2.209,1.791-4,4-4h88
		c2.209,0,4,1.791,4,4V36.005z"/>
	<text transform="matrix(1 0 0 1 -246.3875 23.5969)" fill="#FFFFFF" font-family="'MicrosoftYaHei-Bold'" font-size="12">TENSO-JAPAN</text>
</g>
<g>
	<g>
		<path fill="#333333" d="M-116.554,36.413h-7.123V18.49h-1.402v15.8h-1.244c0.114-1.798-0.931-1.793-0.931-1.793l-2.666-14.007
			h-9.308c-0.397,0.086-0.408,0.448-0.408,0.448v11.163l-3.465-0.685c-0.689-0.333-1,0.422-1,0.422v6.909
			c0.089,0.399,0.354,0.511,0.354,0.511h0.889c0.245-3.488,3.221-3.399,3.221-3.399c3.465,0.044,3.421,3.376,3.421,3.376h1.911
			c0.066-3.421,3.176-3.376,3.176-3.376c3.644,0.111,3.388,3.438,3.388,3.438h0.843c0.667-0.2,0.59-1.526,0.59-1.526h1.245
			l-0.012,2.043C-116.421,37.814-116.554,36.413-116.554,36.413z M-138.582,29.264v-9.31c0.128-0.356,0.394-0.472,0.394-0.472h6.805
			c0.636,0,0.792,0.669,0.792,0.669l1.782,9.111L-138.582,29.264L-138.582,29.264z"/>
		<g>
			<circle fill="#333333" cx="-139.594" cy="37.083" r="2.802"/>
			<circle fill="#FFFFFF" cx="-139.594" cy="37.083" r="1.142"/>
		</g>
		<g>
			<circle fill="#333333" cx="-131.02" cy="37.083" r="2.802"/>
			<circle fill="#FFFFFF" cx="-131.02" cy="37.083" r="1.141"/>
		</g>
		<g>
			<circle fill="#333333" cx="-134.522" cy="22.613" r="1.953"/>
			<path fill="#333333" d="M-136.975,29.264c0,0-0.358-2.046,0.037-3.238c0.192-0.583,0.61-1.609,1.954-1.169
				c0,0,0.833,0.125,1.053,2.077l0.144,2.33H-136.975z"/>
			<path fill="#333333" d="M-132.182,29.264l1.854-2.484c0,0,0.643-0.362,0.608,0.326l-1.552,2.158H-132.182z"/>
			<polyline fill="#333333" points="-130.958,28.556 -129.938,29.301 -129.267,29.264 -130.682,28.151 -130.958,28.51 			"/>
			<path fill="#333333" d="M-134.288,28.475c0.782,0.535,4.12,0.46,4.015-0.439c0,0,0.189-0.563-1.264-0.575
				c0,0-0.55-0.031-1.669-0.229c0,0-1.037-0.261-1.541-1.228c-0.133-0.313-1.357-0.811-1.436,0.339
				C-136.184,26.343-136.363,27.055-134.288,28.475z"/>
		</g>
		<path fill="#333333" d="M-116.932,27.945c0,0.394-0.318,0.711-0.71,0.711h-4.645c-0.393,0-0.711-0.317-0.711-0.711v-4.643
			c0-0.393,0.318-0.71,0.711-0.71h4.645c0.393,0,0.71,0.318,0.71,0.71V27.945z"/>
		<path fill="#333333" d="M-116.932,34.869c0,0.393-0.318,0.711-0.71,0.711h-4.645c-0.393,0-0.711-0.318-0.711-0.711v-4.644
			c0-0.393,0.318-0.71,0.711-0.71h4.645c0.393,0,0.71,0.318,0.71,0.71V34.869z"/>
	</g>
	<g>
		<path fill="#333333" d="M-97.197,0.067l-19.548,9.017v5.405c0.031,0.5,0.328,0.466,0.328,0.466h1.859v24.347
			c0.047,0.547,0.422,0.578,0.422,0.578h16.938h17.925c0,0,0.396-0.031,0.446-0.578V14.955h1.969c0,0,0.313,0.034,0.347-0.466V9.083
			L-97.197,0.067z"/>
		<polygon fill="#FFFFFF" points="-78.605,10.552 -97.26,2.567 -114.557,10.552 -114.557,12.738 -112.269,12.738 -112.322,37.676 
			-97.26,37.676 -81.015,37.676 -81.072,12.738 -78.605,12.738 		"/>
		<rect x="-110.114" y="19.469" fill="#333333" width="26.748" height="18.208"/>
		<rect x="-110.114" y="13.859" fill="#333333" width="5.608" height="3.385"/>
		<rect x="-103.346" y="13.859" fill="#333333" width="5.609" height="3.385"/>
		<rect x="-96.229" y="13.859" fill="#333333" width="5.608" height="3.385"/>
		<rect x="-88.974" y="13.859" fill="#333333" width="5.608" height="3.385"/>
		<rect x="-107.842" y="25.171" fill="#FFFFFF" width="6.629" height="3.4"/>
		<rect x="-107.842" y="29.76" fill="#FFFFFF" width="6.629" height="3.401"/>
		<rect x="-107.842" y="34.275" fill="#FFFFFF" width="6.629" height="3.401"/>
		<rect x="-100.054" y="34.275" fill="#FFFFFF" width="6.629" height="3.401"/>
		<rect x="-100.054" y="29.76" fill="#FFFFFF" width="6.629" height="3.401"/>
		<rect x="-92.289" y="34.275" fill="#FFFFFF" width="6.629" height="3.401"/>
	</g>
</g>
<g>
	<path fill="#333333" d="M-26.939,25.823h15.177c0,0,0.301,0.064,0.37,0.396v6.399h-21.27v-1.725l-0.769-0.341l-0.604,0.536v7.4
		c0,0,0.36,1.303,1.329,1.465h21.313c0,0,0.911-0.18,1.393-1.363V25.898c0,0-0.351-1.095-1.431-1.431h-13.367
		c0,0,0.073-4.266-0.188-7.216c0,0-0.673-3.39-3.39-6.516c0,0-2.911-3.974-3.223-5.608c0,0-0.644-2.201-4.46-2.609
		c0,0-21.542,0.292-26.45-2.513c0,0-3.221,6.085-3.918,9.723c0,0-0.351,1.734,0.388,1.98c0,0,3.919,1.424,5.264,2.904
		c0,0,2.979,2.435,7.216,4.129c0,0,5.581,2.22,7.304,2.717l-0.012,0.146c0,0-2.783-0.311-2.938,1.219c0,0-1.081,1.949,1.198,2.533
		c0,0,1.14,0.513,2.921,0.513c0,0-0.397,2.57,0.361,2.94c0,0,1.374,0.701,6.472-0.721l0.163,0.021c0,0-1.211,1.905,0.469,2.769
		c0,0,1.563,1.432,3.842-1.446l3.418,1.33c0,0,2.979,0.773,3.01-1.885c0,0,0.935-3.447-4.733-6.896c0,0-5.843-3.797-5.989-5.054
		c0,0-0.263-2.512,2.893-1.899c0,0,2.482,1.432,4.499,3.359c0,0,0.789,3.564,0.73,3.886C-29.954,22.276-27.167,24.757-26.939,25.823
		z"/>
	<path fill="#FFFFFF" d="M-32.616,36.406h21.236v1.851c0,0-0.137,0.273-0.457,0.32H-32.25c0,0-0.229-0.047-0.366-0.32V36.406z"/>
</g>
<path fill="#333333" d="M19.547,0.216L0,9.231v5.406c0.031,0.5,0.328,0.465,0.328,0.465h1.859V39.45
	c0.047,0.547,0.422,0.577,0.422,0.577h16.938h17.926c0,0,0.396-0.03,0.446-0.577V15.103h1.969c0,0,0.313,0.035,0.348-0.465V9.231
	L19.547,0.216z M38.139,12.886h-2.468l0.058,24.939H19.484H4.422l0.054-24.939H2.188V10.7l17.296-7.984L38.139,10.7V12.886z"/>
<rect x="6.63" y="14.008" fill="#333333" width="5.609" height="3.384"/>
<rect x="13.682" y="14.008" fill="#333333" width="5.608" height="3.384"/>
<rect x="20.799" y="14.008" fill="#333333" width="5.608" height="3.384"/>
<rect x="27.77" y="14.008" fill="#333333" width="5.608" height="3.384"/>
<path fill="#333333" d="M6.63,19.617v18.208h26.749V19.617H6.63z M15.531,37.823H8.902v-3.4h6.629V37.823z M15.531,33.31H8.902v-3.4
	h6.629V33.31z M15.531,28.72H8.902v-3.401h6.629V28.72z M23.319,37.823H16.69v-3.4h6.629V37.823z M23.319,33.31H16.69v-3.4h6.629
	V33.31z M31.084,37.823h-6.629v-3.4h6.629V37.823z"/>
<g>
	<path fill="#333333" d="M58.193,27.135h-0.016c-0.006,0.077-0.021,0.151-0.045,0.224l-0.303,0.925h0.705l-0.301-0.918
		C58.215,27.307,58.201,27.231,58.193,27.135z"/>
	<path fill="#333333" d="M52.395,27.122c-0.222,0-0.396,0.082-0.522,0.246s-0.189,0.377-0.189,0.638
		c0,0.258,0.062,0.468,0.186,0.632c0.124,0.163,0.295,0.245,0.512,0.245c0.221,0,0.393-0.078,0.516-0.235
		c0.123-0.156,0.184-0.367,0.184-0.632c0-0.275-0.059-0.493-0.179-0.653S52.613,27.122,52.395,27.122z"/>
	<path fill="#333333" d="M60.631,27.115h-0.25v0.854h0.244c0.332,0,0.498-0.144,0.498-0.433
		C61.123,27.256,60.959,27.115,60.631,27.115z"/>
	<path fill="#333333" d="M67.244,22.288H41.371c-0.559,0-1.01,0.447-1.01,1v9.979c0,0.552,0.451,1,1.01,1h25.873
		c0.557,0,1.01-0.448,1.01-1v-9.979C68.254,22.736,67.801,22.288,67.244,22.288z M43.818,27.14h-0.756v2.186h-0.566V27.14h-0.753
		v-0.462h2.075V27.14z M45.748,29.325h-1.568v-2.647h1.506v0.462h-0.941v0.624h0.875v0.459h-0.875v0.641h1.004V29.325z
		 M48.535,29.325h-0.578l-1.121-1.712c-0.059-0.09-0.1-0.161-0.127-0.216h-0.008c0.01,0.091,0.016,0.231,0.016,0.422v1.506h-0.535
		v-2.647h0.615l1.08,1.665c0.072,0.11,0.115,0.181,0.131,0.21h0.01C48.006,28.49,48,28.367,48,28.188v-1.51h0.535V29.325z
		 M50.541,29.172c-0.18,0.133-0.436,0.199-0.768,0.199c-0.303,0-0.551-0.049-0.744-0.146v-0.566
		c0.213,0.177,0.455,0.266,0.727,0.266c0.152,0,0.269-0.026,0.346-0.08c0.078-0.053,0.117-0.121,0.117-0.204
		c0-0.071-0.031-0.14-0.093-0.203s-0.224-0.15-0.487-0.26c-0.414-0.176-0.62-0.431-0.62-0.766c0-0.246,0.094-0.438,0.281-0.573
		c0.188-0.137,0.436-0.204,0.744-0.204c0.259,0,0.476,0.033,0.651,0.101v0.529c-0.178-0.12-0.386-0.181-0.624-0.181
		c-0.14,0-0.25,0.025-0.333,0.076c-0.084,0.051-0.125,0.118-0.125,0.204c0,0.068,0.028,0.131,0.086,0.188
		c0.057,0.058,0.197,0.136,0.422,0.233c0.264,0.113,0.443,0.232,0.543,0.357c0.098,0.125,0.146,0.274,0.146,0.447
		C50.81,28.845,50.72,29.038,50.541,29.172z M53.312,28.987c-0.24,0.257-0.555,0.385-0.943,0.385c-0.379,0-0.688-0.124-0.924-0.373
		s-0.355-0.569-0.355-0.961c0-0.415,0.121-0.753,0.363-1.013c0.242-0.261,0.563-0.391,0.959-0.391c0.379,0,0.684,0.126,0.914,0.378
		c0.23,0.251,0.346,0.575,0.346,0.971C53.672,28.395,53.552,28.73,53.312,28.987z M55.088,28.507h-1.011v-0.39h1.011V28.507z
		 M56.707,28.286c0,0.35-0.081,0.618-0.242,0.805c-0.161,0.188-0.393,0.28-0.693,0.28c-0.133,0-0.256-0.022-0.371-0.068v-0.531
		c0.099,0.074,0.211,0.111,0.336,0.111c0.271,0,0.406-0.206,0.406-0.617v-1.588h0.564V28.286z M58.867,29.325l-0.199-0.606h-0.961
		l-0.195,0.606H56.9l0.969-2.647h0.662l0.951,2.647H58.867z M60.672,28.403h-0.291v0.923h-0.564v-2.647h0.912
		c0.658,0,0.987,0.279,0.987,0.838c0,0.271-0.1,0.488-0.298,0.651C61.219,28.331,60.97,28.409,60.672,28.403z M63.568,29.325
		l-0.197-0.606h-0.963l-0.195,0.606h-0.611l0.969-2.647h0.664l0.949,2.647H63.568z M66.872,29.325h-0.577l-1.121-1.712
		c-0.059-0.09-0.101-0.161-0.127-0.216h-0.008c0.01,0.091,0.015,0.231,0.015,0.422v1.506h-0.534v-2.647h0.615l1.08,1.665
		c0.07,0.11,0.115,0.181,0.131,0.21h0.008c-0.011-0.063-0.016-0.186-0.016-0.365v-1.51h0.534V29.325z"/>
	<path fill="#333333" d="M62.894,27.135H62.88c-0.007,0.077-0.022,0.151-0.046,0.224l-0.303,0.925h0.705l-0.301-0.918
		C62.917,27.307,62.903,27.231,62.894,27.135z"/>
</g>
<path fill="#333333" d="M43.575,36.475c0,0-0.853,0.87,0,2.031h-2.313v-2.031H43.575z"/>
<path fill="#333333" d="M51.098,36.475c0,0,0.719,1.133,0,2.031h19.405c0,0-0.719-5.229,3.688-5.229c0,0,4.281-0.094,3.938,4.72
	h3.563v-2.313l-0.453-0.406V29.54l-4.146-7.252h-7.479L69.58,36.042c0,0,0.145,0.433-0.339,0.433H51.098z"/>
<path fill="#FFFFFF" d="M72.145,24.919h-0.711h-0.711c0,0-0.316,0.06-0.253,0.43v4.315c0,0,0.03,0.179,0.362,0.268h0.602h0.601
	c0.332-0.089,0.363-0.268,0.363-0.268v-4.315C72.461,24.979,72.145,24.919,72.145,24.919z"/>
<path fill="#FFFFFF" d="M72.8,24.919h3.657l2.984,3.357c0,0,0.219,0.643-0.094,0.643h-5l-0.291,0.114l-0.804,0.886
	c0,0-0.469,0.141-0.453-0.5V24.919z"/>
<circle fill="#333333" cx="47.201" cy="37.604" r="2.424"/>
<circle fill="#FFFFFF" cx="47.201" cy="37.604" r="1.604"/>
<circle fill="#333333" cx="74.285" cy="37.604" r="2.423"/>
<circle fill="#FFFFFF" cx="74.285" cy="37.604" r="1.603"/>
<g>
	<path fill="#333333" d="M136.783,38.225c0,0.552-0.502,1-1.123,1h-2.23c-0.62,0-1.123-0.448-1.123-1V24.541
		c0-0.553,0.503-1,1.123-1h2.23c0.621,0,1.123,0.447,1.123,1V38.225z"/>
	<path fill="#333333" d="M130.664,35.689v-9.48c0,0-0.486-1.641-7.133-3.19c0,0-1.816-0.532-4.297,1.152l-2.969,1.506
		c0,0-0.437,0.402-3.095,0.49l-6.919-0.27c0,0-1.675-0.091-1.769,1.284c0,0-0.344,1.75,1.969,1.922c0,0,6.781,1.047,9.313,1.172
		c0,0,2.438,0.063,2.344,0.938c0,0,0.375,1.156-1.844,1.219l-11.8-1.25c0,0-0.981,0.063-3.45-2.469c0,0-5.345-7.563-7.345-8.031
		c0,0-2.438-1.063-1.938,1.563c0,0-0.125,0.53,2.459,4.155l5.791,8.625c0,0,0.625,1.083,1.875,1.542l8.084,3.292h2.625
		c0,0,14.75-3.417,16.375-3.708C128.943,36.151,130.052,35.978,130.664,35.689z"/>
	<path fill="#333333" d="M95.346,20.227c0,0,1.901,1.626,2.576,2.491c0,0,4.359,5.294,4.724,5.536h0.226c0,0,0.553-1.713,0.535-2.06
		c0,0-4.584-6.399-6.591-6.78C96.815,19.414,95.276,19.067,95.346,20.227z"/>
	<path fill="#333333" d="M99.67,20.192l4.812,5.018c0,0,1.105-0.779,2.214-0.831c0,0-4.774-4.999-5.467-4.896
		C101.228,19.483,99.688,19.292,99.67,20.192z"/>
	<polygon fill="#333333" points="102.818,5.977 102.818,18.977 113.174,24.256 113.174,11.275 	"/>
	<polygon fill="#333333" points="124.09,5.977 124.09,18.977 113.734,24.256 113.734,11.275 	"/>
	<g>
		<polygon fill="#C6000D" points="114.326,0.471 103.689,5.908 102.818,5.463 113.453,0.025 		"/>
		<polygon fill="#C6000D" points="116.278,1.47 107.421,5.997 106.55,5.552 115.407,1.024 		"/>
		<polygon fill="#C6000D" points="116.383,3.413 109.375,6.996 108.502,6.55 115.512,2.967 		"/>
		<polygon fill="#C6000D" points="118.336,4.411 111.327,7.994 110.455,7.548 117.465,3.965 		"/>
		<polygon fill="#C6000D" points="123.219,5.908 112.582,0.472 113.453,0.025 124.09,5.462 		"/>
		<polygon fill="#C6000D" points="113.453,10.899 102.818,5.463 103.689,5.017 114.325,10.454 		"/>
		<polygon fill="#C6000D" points="111.327,7.994 106.55,5.552 107.421,5.106 112.199,7.548 		"/>
		<polygon fill="#C6000D" points="119.418,5.854 114.641,3.413 115.512,2.967 120.29,5.409 		"/>
		<polygon fill="#C6000D" points="120.29,5.409 111.537,9.884 110.664,9.438 119.417,4.963 		"/>
		<polygon fill="#C6000D" points="124.09,5.463 113.455,10.899 112.582,10.454 123.219,5.018 		"/>
	</g>
</g>
</svg>
