<?xml version="1.0" encoding="utf-8"?>
<!-- Generator: Adobe Illustrator 14.0.0, SVG Export Plug-In . SVG Version: 6.00 Build 43363)  -->
<!DOCTYPE svg PUBLIC "-//W3C//DTD SVG 1.1//EN" "http://www.w3.org/Graphics/SVG/1.1/DTD/svg11.dtd">
<svg version="1.1" id="图层_1" xmlns="http://www.w3.org/2000/svg" xmlns:xlink="http://www.w3.org/1999/xlink" x="0px" y="0px"
	 width="68.744px" height="47.7px" viewBox="0 0 68.744 47.7" enable-background="new 0 0 68.744 47.7" xml:space="preserve">
<g>
	<path fill="none" stroke="#666666" stroke-linecap="round" stroke-linejoin="round" d="M21.373,14.204V7.291
		c0,0,4.232-1.195,6.623,1.859c0,0,3.26-1.461,5.946,2.921c0,0,7.226,1.196,3.894,4.516l-5.079,2.897"/>
	<path fill="none" stroke="#666666" stroke-linecap="round" stroke-linejoin="round" d="M21.373,13.272
		c0,0,8.604-2.585,13.324,5.146"/>
	<polyline fill="none" stroke="#666666" stroke-linecap="round" stroke-linejoin="round" points="19.243,17.649 19.243,22.696 
		11.793,33.586 	"/>
	
		<line fill="none" stroke="#666666" stroke-linecap="round" stroke-linejoin="round" x1="25.074" y1="19.561" x2="19.243" y2="23.297"/>
	
		<line fill="none" stroke="#666666" stroke-linecap="round" stroke-linejoin="round" x1="14.938" y1="21.429" x2="22.911" y2="24.75"/>
	
		<line fill="none" stroke="#666666" stroke-linecap="round" stroke-linejoin="round" x1="9.224" y1="26.194" x2="21.906" y2="30.589"/>
	<path fill="none" stroke="#666666" stroke-linecap="round" stroke-linejoin="round" d="M28.591,16.257
		c0,0-23.434-9.602-27.761,12.135c0,0-4.711,20.619,22.969,14.615c0,0,10.562-2.291,12.004-11.69
		C35.812,30.278,37.598,20.974,28.591,16.257z"/>
	<path fill="none" stroke="#666666" stroke-linecap="round" stroke-linejoin="round" d="M21.906,3.507
		C6.93,0.174,5.966,8.924,5.966,8.924"/>
	<path fill="none" stroke="#666666" d="M20.466,0.591"/>
	<polyline fill="none" stroke="#666666" stroke-linecap="round" stroke-linejoin="round" points="20.033,0.591 21.906,3.684 
		18.407,7.448 	"/>
	<path fill="none" stroke="#666666" stroke-linecap="round" stroke-linejoin="round" d="M33.069,19.306c0,0,9.748,1.932,2.184,3.784
		"/>
	<path fill="none" stroke="#666666" stroke-linecap="round" stroke-linejoin="round" d="M37.466,22.321c0,0,5.099,2.042-1.596,4.237
		"/>
	<polyline fill="none" stroke="#666666" stroke-linecap="round" stroke-linejoin="round" points="30.043,8.924 30.043,2.167 
		68.014,2.167 68.014,28.392 36.583,28.392 	"/>
	<polyline fill="none" stroke="#666666" stroke-linecap="round" stroke-linejoin="round" points="30.043,2.75 44.229,14.786 
		49.028,18.859 68.014,2.75 	"/>
	
		<line fill="none" stroke="#666666" stroke-linecap="round" stroke-linejoin="round" x1="38.189" y1="20.24" x2="44.229" y2="14.786"/>
	
		<line fill="none" stroke="#666666" stroke-linecap="round" stroke-linejoin="round" x1="54.328" y1="14.786" x2="67.491" y2="28.392"/>
	<path fill="none" stroke="#666666" stroke-linecap="round" stroke-linejoin="round" d="M56.313,32.15
		c0,0,4.179,10.843-8.462,11.481"/>
	<polyline fill="none" stroke="#666666" stroke-linecap="round" stroke-linejoin="round" points="48.478,40.717 46.806,43.631 
		50.985,46.985 	"/>
</g>
<g>
	<path fill="none" stroke="#666666" stroke-linecap="round" stroke-linejoin="round" d="M196.344,49.477c0,0-4.776-2.089-16.16,9.13
		l-20.25-3.722l-2.791,2.736l15.872,8.374l-8.593,9.03l-8.319,0.328c0,0-1.344,0.695,0,1.86s5.423,3.263,5.423,3.263l2.972,6.293
		c0,0,1.398,0.35,1.864-1.224v-6.409l10.663-8.624l6.642,16.897l2.797-2.098l-1.166-20.859
		C185.298,64.454,196.901,55.01,196.344,49.477z"/>
	<path fill="none" stroke="#666666" d="M229.568,65.56c1.33-2.188,3.332-6.854-1.939-9.164c-0.52-0.228-2.507-0.648-3.519-0.508
		c-1.947,0.27-4.945,1.205-5.816,4.357c-0.157,0.569-0.142,2.568,0.136,3.447c0.833,2.636,3.234,7.461,9.111,3.877
		C227.931,67.333,229.125,66.29,229.568,65.56z"/>
	
		<line fill="none" stroke="#666666" stroke-width="1.4173" stroke-linecap="round" stroke-linejoin="round" x1="226.349" y1="48.879" x2="226.349" y2="51.969"/>
	
		<line fill="none" stroke="#666666" stroke-width="1.4173" stroke-linecap="round" stroke-linejoin="round" x1="220.29" y1="49.323" x2="221.867" y2="53.214"/>
	
		<line fill="none" stroke="#666666" stroke-width="1.4173" stroke-linecap="round" stroke-linejoin="round" x1="213.401" y1="53.214" x2="215.891" y2="55.206"/>
	
		<line fill="none" stroke="#666666" stroke-width="1.4173" stroke-linecap="round" stroke-linejoin="round" x1="211.16" y1="59.024" x2="213.899" y2="60.353"/>
	
		<line fill="none" stroke="#666666" stroke-width="1.4173" stroke-linecap="round" stroke-linejoin="round" x1="211.16" y1="67.159" x2="215.559" y2="65.748"/>
	
		<line fill="#FFFFFF" stroke="#666666" stroke-width="1.4173" stroke-linecap="round" stroke-linejoin="round" x1="234.75" y1="51.269" x2="232.438" y2="54.21"/>
	
		<line fill="#FFFFFF" stroke="#666666" stroke-width="1.4173" stroke-linecap="round" stroke-linejoin="round" x1="233.938" y1="59.375" x2="237.75" y2="57.438"/>
	
		<line fill="#FFFFFF" stroke="#666666" stroke-width="1.4173" stroke-linecap="round" stroke-linejoin="round" x1="234.313" y1="66.453" x2="237.75" y2="66.453"/>
	
		<line fill="#FFFFFF" stroke="#666666" stroke-width="1.4173" stroke-linecap="round" stroke-linejoin="round" x1="231.563" y1="69.75" x2="233.25" y2="72.563"/>
	
		<line fill="#FFFFFF" stroke="#666666" stroke-width="1.4173" stroke-linecap="round" stroke-linejoin="round" x1="226.349" y1="71.563" x2="226.875" y2="75"/>
	
		<line fill="#FFFFFF" stroke="#666666" stroke-width="1.4173" stroke-linecap="round" stroke-linejoin="round" x1="220" y1="71.563" x2="219.063" y2="75"/>
	
		<line fill="#FFFFFF" stroke="#666666" stroke-width="1.4173" stroke-linecap="round" stroke-linejoin="round" x1="217.313" y1="69.188" x2="215.559" y2="71.563"/>
	<path fill="none" stroke="#666666" stroke-linecap="round" stroke-linejoin="round" d="M186.186,80.351h38.448
		c0,0-2.597,12.315-8.199,15.649h-32.269c0,0-4.167,1.369-5.167-15.649h1.891"/>
	
		<line fill="none" stroke="#666666" stroke-linecap="round" stroke-linejoin="round" x1="180.921" y1="92.362" x2="219.938" y2="92.362"/>
	<path fill="none" stroke="#666666" stroke-linecap="round" stroke-linejoin="round" d="M185.594,69.75l1.74-0.563v-2.734
		c0,0,0.3-1.347,0.767-1.619c1.116-0.648,3.183-1.456,4.382,0.515v3.838h14.224c0,0,6.835,1.938,7.939,4.688v6.476"/>
	<path fill="none" stroke="#666666" stroke-linecap="round" stroke-linejoin="round" d="M189.203,73.281c0,0,2.689,0.62,2.208,3.416
		c-0.078,0.455-0.948,1.729-1.566,1.843c-1.252,0.231-3.251,0.17-3.89-2.318"/>
	<path fill="none" stroke="#666666" stroke-linecap="round" stroke-linejoin="round" d="M196.07,73.281c0,0,4.362,2.363,0.969,4.716
		c0,0-3.522,2.815-4.039-2.998"/>
	<path fill="none" stroke="#666666" stroke-linecap="round" stroke-linejoin="round" d="M202.371,72.908c0,0,3.07,1.858,1.777,4.12
		c0,0-3.797,4.75-4.605-2.028"/>
	<path fill="none" stroke="#666666" stroke-linecap="round" stroke-linejoin="round" d="M208.673,73.281c0,0,4.686,2.04,0.969,4.555
		c0,0-3.554,2.977-3.635-2.836"/>
	<path fill="none" stroke="#666666" stroke-linecap="round" stroke-linejoin="round" d="M151.959,89.146c0,0,3.321-2.454,8.12,2.942
		c0.278,0.312,1.41,1.182,2.313,1.247c1.941,0.14,5.459-0.183,8.349-3.602c0.178-0.21,1.043-0.752,1.812-0.664
		c1.029,0.119,2.51,0.548,3.805,1.906c0,0,4.118,4.068,4.563,1.887"/>
	<path fill="none" stroke="#666666" stroke-linecap="round" stroke-linejoin="round" d="M221.079,90.404c0,0,6.254-1.178,8.92,1.327
		c0,0,1.938,4.94,7.19-0.802c0,0,2.586-2.001,4.121-0.802"/>
</g>
<g>
	<polygon fill="none" stroke="#666666" stroke-linecap="round" stroke-linejoin="round" points="272.373,164.704 272.373,175.891 
		287.013,181.744 309.25,176.858 309.25,165.809 287.507,169.827 	"/>
	<polyline fill="none" stroke="#666666" stroke-linecap="round" stroke-linejoin="round" points="272.373,164.704 266.833,154.25 
		280.667,157.75 287.507,169.827 287.507,181.636 	"/>
	<polyline fill="none" stroke="#666666" stroke-linecap="round" stroke-linejoin="round" points="287.507,169.5 291.25,159.083 
		314,157.244 309.25,165.809 	"/>
	<polyline fill="none" stroke="#666666" stroke-linecap="round" stroke-linejoin="round" points="309.353,165.622 318.5,157.75 
		307.917,152.583 302.5,157.667 	"/>
	<polyline fill="none" stroke="#666666" stroke-linecap="round" stroke-linejoin="round" points="270.5,154.667 300.753,151.667 
		301.941,158.219 	"/>
	<polygon fill="none" stroke="#666666" stroke-linecap="round" stroke-linejoin="round" points="317.319,137.836 320.671,138.265 
		318.292,140.665 318.919,143.985 315.902,142.463 312.938,144.087 313.453,140.747 310.993,138.429 314.329,137.887 
		315.773,134.832 	"/>
	<polygon fill="none" stroke="#666666" stroke-width="0.5669" stroke-linecap="round" stroke-linejoin="round" points="
		267.569,137.15 268.247,137.055 267.911,137.65 268.211,138.265 267.542,138.129 267.05,138.605 266.971,137.925 266.368,137.605 
		266.989,137.321 267.107,136.647 	"/>
	<polygon fill="none" stroke="#666666" stroke-width="0.5669" stroke-linecap="round" stroke-linejoin="round" points="
		279.11,135.734 279.851,135.63 279.483,136.281 279.812,136.953 279.079,136.804 278.542,137.325 278.455,136.582 277.795,136.231 
		278.475,135.92 278.604,135.183 	"/>
	<polygon fill="none" stroke="#666666" stroke-width="0.5669" stroke-linecap="round" stroke-linejoin="round" points="
		298.554,135.845 299.057,136.399 298.313,136.462 297.941,137.111 297.652,136.422 296.919,136.271 297.485,135.781 
		297.403,135.039 298.042,135.425 298.725,135.117 	"/>
	<polygon fill="none" stroke="#666666" stroke-width="0.5669" stroke-linecap="round" stroke-linejoin="round" points="
		310.993,138.429 311.496,138.983 310.751,139.046 310.38,139.695 310.091,139.006 309.358,138.855 309.924,138.365 
		309.842,137.623 310.481,138.009 311.164,137.701 	"/>
	<polygon fill="none" stroke="#666666" stroke-width="0.5669" stroke-linecap="round" stroke-linejoin="round" points="
		309.924,141.842 310.427,142.396 309.682,142.458 309.311,143.108 309.022,142.419 308.289,142.268 308.855,141.778 
		308.773,141.035 309.412,141.422 310.095,141.114 	"/>
	<polygon fill="none" stroke="#666666" stroke-width="0.5669" stroke-linecap="round" stroke-linejoin="round" points="
		308.139,145.621 308.642,146.175 307.897,146.237 307.526,146.887 307.237,146.198 306.504,146.046 307.07,145.557 
		306.988,144.814 307.627,145.201 308.31,144.893 	"/>
	<polygon fill="none" stroke="#666666" stroke-width="0.5669" stroke-linecap="round" stroke-linejoin="round" points="
		306.722,148.468 307.225,149.022 306.48,149.084 306.109,149.734 305.82,149.045 305.087,148.894 305.653,148.404 305.571,147.661 
		306.21,148.048 306.893,147.74 	"/>
	<polygon fill="none" stroke="#666666" stroke-width="0.5669" stroke-linecap="round" stroke-linejoin="round" points="
		305.653,152.023 306.156,152.577 305.411,152.64 305.04,153.289 304.751,152.6 304.018,152.449 304.584,151.959 304.502,151.216 
		305.141,151.603 305.824,151.295 	"/>
	<polygon fill="none" stroke="#666666" stroke-width="0.2835" stroke-linecap="round" stroke-linejoin="round" points="
		304.443,155.012 304.822,155.429 304.262,155.476 303.982,155.965 303.765,155.446 303.213,155.333 303.639,154.964 
		303.578,154.405 304.059,154.696 304.572,154.464 	"/>
	<polygon fill="none" stroke="#666666" stroke-width="0.5669" stroke-linecap="round" stroke-linejoin="round" points="
		297.485,140.835 297.988,141.389 297.244,141.452 296.873,142.101 296.583,141.412 295.85,141.261 296.417,140.771 
		296.334,140.028 296.974,140.415 297.656,140.107 	"/>
	<polygon fill="none" stroke="#666666" stroke-width="0.5669" stroke-linecap="round" stroke-linejoin="round" points="
		296.416,144.584 296.919,145.138 296.174,145.201 295.803,145.85 295.514,145.161 294.781,145.01 295.347,144.52 295.265,143.777 
		295.904,144.164 296.587,143.856 	"/>
	<polygon fill="none" stroke="#666666" stroke-width="0.5669" stroke-linecap="round" stroke-linejoin="round" points="
		295.815,148.468 296.318,149.022 295.573,149.084 295.202,149.734 294.913,149.045 294.18,148.894 294.746,148.404 
		294.664,147.661 295.303,148.048 295.986,147.74 	"/>
	<polygon fill="none" stroke="#666666" stroke-width="0.5669" stroke-linecap="round" stroke-linejoin="round" points="
		295.579,151.499 295.898,151.852 295.425,151.891 295.189,152.304 295.005,151.866 294.54,151.77 294.899,151.458 294.847,150.987 
		295.253,151.232 295.687,151.037 	"/>
	<polygon fill="none" stroke="#666666" stroke-width="0.2835" stroke-linecap="round" stroke-linejoin="round" points="
		294.899,155.039 295.219,155.392 294.746,155.431 294.51,155.844 294.326,155.406 293.86,155.31 294.22,154.999 294.168,154.527 
		294.574,154.772 295.008,154.577 	"/>
	<polygon fill="none" stroke="#666666" stroke-width="0.5669" stroke-linecap="round" stroke-linejoin="round" points="
		269.2,140.959 269.921,140.899 269.589,141.454 269.939,142.057 269.216,141.896 268.711,142.329 268.595,141.674 267.934,141.339 
		268.586,141.096 268.682,140.455 	"/>
	<polygon fill="none" stroke="#666666" stroke-width="0.5669" stroke-linecap="round" stroke-linejoin="round" points="
		280.227,140.599 281.001,140.534 280.645,141.131 281.021,141.779 280.243,141.606 279.7,142.072 279.576,141.367 278.865,141.008 
		279.566,140.746 279.669,140.057 	"/>
	<polygon fill="none" stroke="#666666" stroke-width="0.5669" stroke-linecap="round" stroke-linejoin="round" points="
		271.206,145.318 271.927,145.258 271.595,145.813 271.945,146.416 271.222,146.255 270.717,146.688 270.601,146.033 
		269.939,145.698 270.592,145.455 270.688,144.814 	"/>
	<polygon fill="none" stroke="#666666" stroke-width="0.5669" stroke-linecap="round" stroke-linejoin="round" points="
		281.285,144.932 282.006,144.872 281.674,145.427 282.024,146.029 281.3,145.869 280.795,146.302 280.68,145.646 280.018,145.312 
		280.671,145.068 280.766,144.428 	"/>
	<polygon fill="none" stroke="#666666" stroke-width="0.5669" stroke-linecap="round" stroke-linejoin="round" points="
		282.288,148.796 283.009,148.736 282.677,149.291 283.027,149.894 282.303,149.733 281.798,150.166 281.683,149.511 
		281.021,149.176 281.674,148.933 281.769,148.292 	"/>
	<polygon fill="none" stroke="#666666" stroke-width="0.5669" stroke-linecap="round" stroke-linejoin="round" points="
		283.291,151.819 284.012,151.759 283.68,152.314 284.03,152.917 283.306,152.756 282.801,153.189 282.686,152.534 282.024,152.2 
		282.677,151.956 282.772,151.315 	"/>
	<polygon fill="none" stroke="#666666" stroke-width="0.2835" stroke-linecap="round" stroke-linejoin="round" points="
		284.212,156.348 284.629,156.313 284.437,156.634 284.64,156.982 284.221,156.89 283.929,157.14 283.862,156.761 283.479,156.567 
		283.856,156.427 283.912,156.056 	"/>
	<polygon fill="none" stroke="#666666" stroke-width="0.5669" stroke-linecap="round" stroke-linejoin="round" points="
		272.933,149.201 273.654,149.141 273.322,149.696 273.672,150.299 272.949,150.138 272.444,150.571 272.328,149.916 
		271.667,149.582 272.319,149.338 272.415,148.697 	"/>
	<polygon fill="none" stroke="#666666" stroke-width="0.5669" stroke-linecap="round" stroke-linejoin="round" points="
		274.605,152.756 275.326,152.696 274.994,153.251 275.344,153.854 274.621,153.693 274.116,154.126 274,153.471 273.338,153.137 
		273.991,152.893 274.086,152.252 	"/>
	<polygon fill="none" stroke="#666666" stroke-linecap="round" stroke-linejoin="round" points="326.581,145.689 329.933,146.119 
		327.554,148.518 328.181,151.838 325.164,150.316 322.201,151.94 322.715,148.6 320.255,146.283 323.591,145.74 325.035,142.686 	
		"/>
	<polygon fill="none" stroke="#666666" stroke-linecap="round" stroke-linejoin="round" points="333.895,155.256 337.247,155.686 
		334.867,158.085 335.495,161.405 332.478,159.883 329.514,161.507 330.029,158.167 327.569,155.85 330.904,155.307 
		332.349,152.252 	"/>
	<polygon fill="none" stroke="#666666" stroke-linecap="round" stroke-linejoin="round" points="326.581,165.563 329.933,165.992 
		327.554,168.392 328.181,171.712 325.164,170.19 322.201,171.814 322.715,168.474 320.255,166.156 323.591,165.614 
		325.035,162.559 	"/>
	<polygon fill="none" stroke="#666666" stroke-linecap="round" stroke-linejoin="round" points="317.648,173.247 321,173.676 
		318.621,176.075 319.249,179.396 316.231,177.874 313.268,179.498 313.783,176.157 311.323,173.84 314.658,173.297 
		316.103,170.243 	"/>
</g>
</svg>
