<?xml version="1.0" encoding="utf-8"?>
<!-- Generator: Adobe Illustrator 14.0.0, SVG Export Plug-In . SVG Version: 6.00 Build 43363)  -->
<!DOCTYPE svg PUBLIC "-//W3C//DTD SVG 1.1//EN" "http://www.w3.org/Graphics/SVG/1.1/DTD/svg11.dtd">
<svg version="1.1" id="图层_1" xmlns="http://www.w3.org/2000/svg" xmlns:xlink="http://www.w3.org/1999/xlink" x="0px" y="0px"
	 width="91.177px" height="48.938px" viewBox="0 0 91.177 48.938" enable-background="new 0 0 91.177 48.938" xml:space="preserve">
<g>
	<path fill="none" stroke="#666666" stroke-linecap="round" stroke-linejoin="round" d="M-129.485-33.752v-6.913
		c0,0,4.232-1.195,6.623,1.859c0,0,3.26-1.461,5.946,2.921c0,0,7.226,1.196,3.894,4.516l-5.079,2.897"/>
	<path fill="none" stroke="#666666" stroke-linecap="round" stroke-linejoin="round" d="M-129.485-34.684
		c0,0,8.604-2.585,13.324,5.146"/>
	<polyline fill="none" stroke="#666666" stroke-linecap="round" stroke-linejoin="round" points="-131.616,-30.307 -131.616,-25.26 
		-139.065,-14.37 	"/>
	
		<line fill="none" stroke="#666666" stroke-linecap="round" stroke-linejoin="round" x1="-125.785" y1="-28.395" x2="-131.616" y2="-24.659"/>
	
		<line fill="none" stroke="#666666" stroke-linecap="round" stroke-linejoin="round" x1="-135.921" y1="-26.527" x2="-127.947" y2="-23.206"/>
	
		<line fill="none" stroke="#666666" stroke-linecap="round" stroke-linejoin="round" x1="-141.635" y1="-21.762" x2="-128.952" y2="-17.367"/>
	<path fill="none" stroke="#666666" stroke-linecap="round" stroke-linejoin="round" d="M-122.268-31.699
		c0,0-23.434-9.602-27.761,12.135c0,0-4.711,20.619,22.969,14.615c0,0,10.562-2.291,12.004-11.69
		C-115.047-17.678-113.261-26.982-122.268-31.699z"/>
	<path fill="none" stroke="#666666" stroke-linecap="round" stroke-linejoin="round" d="M-128.952-44.449
		c-14.977-3.333-15.94,5.417-15.94,5.417"/>
	<path fill="none" stroke="#666666" d="M-130.393-47.365"/>
	<polyline fill="none" stroke="#666666" stroke-linecap="round" stroke-linejoin="round" points="-130.825,-47.365 
		-128.952,-44.272 -132.451,-40.508 	"/>
	<path fill="none" stroke="#666666" stroke-linecap="round" stroke-linejoin="round" d="M-117.789-28.65
		c0,0,9.748,1.932,2.184,3.784"/>
	<path fill="none" stroke="#666666" stroke-linecap="round" stroke-linejoin="round" d="M-113.392-25.635
		c0,0,5.099,2.042-1.596,4.237"/>
	<polyline fill="none" stroke="#666666" stroke-linecap="round" stroke-linejoin="round" points="-120.815,-39.032 
		-120.815,-45.789 -82.845,-45.789 -82.845,-19.564 -114.275,-19.564 	"/>
	<polyline fill="none" stroke="#666666" stroke-linecap="round" stroke-linejoin="round" points="-120.815,-45.206 -106.63,-33.17 
		-101.83,-29.097 -82.845,-45.206 	"/>
	
		<line fill="none" stroke="#666666" stroke-linecap="round" stroke-linejoin="round" x1="-112.669" y1="-27.716" x2="-106.63" y2="-33.17"/>
	
		<line fill="none" stroke="#666666" stroke-linecap="round" stroke-linejoin="round" x1="-96.53" y1="-33.17" x2="-83.367" y2="-19.564"/>
	<path fill="none" stroke="#666666" stroke-linecap="round" stroke-linejoin="round" d="M-94.545-15.806
		c0,0,4.179,10.843-8.462,11.481"/>
	<polyline fill="none" stroke="#666666" stroke-linecap="round" stroke-linejoin="round" points="-102.38,-7.239 -104.052,-4.325 
		-99.873,-0.971 	"/>
</g>
<g>
	<path fill="none" stroke="#666666" stroke-linecap="round" stroke-linejoin="round" d="M45.485,1.521c0,0-4.776-2.089-16.16,9.13
		L9.075,6.93L6.284,9.666l15.872,8.374l-8.593,9.03l-8.319,0.328c0,0-1.344,0.695,0,1.86s5.423,3.263,5.423,3.263l2.972,6.293
		c0,0,1.398,0.35,1.864-1.224v-6.409l10.663-8.624l6.642,16.897l2.797-2.098l-1.166-20.859C34.439,16.498,46.043,7.054,45.485,1.521
		z"/>
	<path fill="none" stroke="#666666" d="M78.71,17.604c1.33-2.188,3.332-6.854-1.939-9.164c-0.52-0.228-2.507-0.648-3.519-0.508
		c-1.947,0.27-4.945,1.205-5.816,4.357c-0.157,0.569-0.142,2.568,0.136,3.447c0.833,2.636,3.234,7.461,9.111,3.877
		C77.073,19.376,78.267,18.333,78.71,17.604z"/>
	
		<line fill="none" stroke="#666666" stroke-width="1.4173" stroke-linecap="round" stroke-linejoin="round" x1="75.491" y1="0.923" x2="75.491" y2="4.013"/>
	
		<line fill="none" stroke="#666666" stroke-width="1.4173" stroke-linecap="round" stroke-linejoin="round" x1="69.432" y1="1.367" x2="71.009" y2="5.258"/>
	
		<line fill="none" stroke="#666666" stroke-width="1.4173" stroke-linecap="round" stroke-linejoin="round" x1="62.542" y1="5.258" x2="65.033" y2="7.25"/>
	
		<line fill="none" stroke="#666666" stroke-width="1.4173" stroke-linecap="round" stroke-linejoin="round" x1="60.302" y1="11.068" x2="63.041" y2="12.396"/>
	
		<line fill="none" stroke="#666666" stroke-width="1.4173" stroke-linecap="round" stroke-linejoin="round" x1="60.302" y1="19.203" x2="64.701" y2="17.792"/>
	
		<line fill="#FFFFFF" stroke="#666666" stroke-width="1.4173" stroke-linecap="round" stroke-linejoin="round" x1="83.892" y1="3.313" x2="81.579" y2="6.254"/>
	
		<line fill="#FFFFFF" stroke="#666666" stroke-width="1.4173" stroke-linecap="round" stroke-linejoin="round" x1="83.079" y1="11.419" x2="86.892" y2="9.481"/>
	
		<line fill="#FFFFFF" stroke="#666666" stroke-width="1.4173" stroke-linecap="round" stroke-linejoin="round" x1="83.454" y1="18.497" x2="86.892" y2="18.497"/>
	
		<line fill="#FFFFFF" stroke="#666666" stroke-width="1.4173" stroke-linecap="round" stroke-linejoin="round" x1="80.704" y1="21.794" x2="82.392" y2="24.606"/>
	
		<line fill="#FFFFFF" stroke="#666666" stroke-width="1.4173" stroke-linecap="round" stroke-linejoin="round" x1="75.491" y1="23.606" x2="76.017" y2="27.044"/>
	
		<line fill="#FFFFFF" stroke="#666666" stroke-width="1.4173" stroke-linecap="round" stroke-linejoin="round" x1="69.142" y1="23.606" x2="68.204" y2="27.044"/>
	
		<line fill="#FFFFFF" stroke="#666666" stroke-width="1.4173" stroke-linecap="round" stroke-linejoin="round" x1="66.454" y1="21.231" x2="64.701" y2="23.606"/>
	<path fill="none" stroke="#666666" stroke-linecap="round" stroke-linejoin="round" d="M35.328,32.395h38.448
		c0,0-2.597,12.315-8.199,15.649H33.308c0,0-4.167,1.369-5.167-15.649h1.891"/>
	
		<line fill="none" stroke="#666666" stroke-linecap="round" stroke-linejoin="round" x1="30.063" y1="44.406" x2="69.08" y2="44.406"/>
	<path fill="none" stroke="#666666" stroke-linecap="round" stroke-linejoin="round" d="M34.735,21.794l1.74-0.563v-2.734
		c0,0,0.3-1.347,0.767-1.619c1.116-0.648,3.183-1.456,4.382,0.515v3.838h14.224c0,0,6.835,1.938,7.939,4.688v6.476"/>
	<path fill="none" stroke="#666666" stroke-linecap="round" stroke-linejoin="round" d="M38.344,25.325c0,0,2.689,0.62,2.208,3.416
		c-0.078,0.455-0.948,1.729-1.566,1.843c-1.252,0.231-3.251,0.17-3.89-2.318"/>
	<path fill="none" stroke="#666666" stroke-linecap="round" stroke-linejoin="round" d="M45.211,25.325c0,0,4.362,2.363,0.969,4.716
		c0,0-3.522,2.815-4.039-2.998"/>
	<path fill="none" stroke="#666666" stroke-linecap="round" stroke-linejoin="round" d="M51.513,24.952c0,0,3.07,1.858,1.777,4.12
		c0,0-3.797,4.75-4.605-2.028"/>
	<path fill="none" stroke="#666666" stroke-linecap="round" stroke-linejoin="round" d="M57.814,25.325c0,0,4.686,2.04,0.969,4.555
		c0,0-3.554,2.977-3.635-2.836"/>
	<path fill="none" stroke="#666666" stroke-linecap="round" stroke-linejoin="round" d="M1.101,41.19c0,0,3.321-2.454,8.12,2.942
		c0.278,0.312,1.41,1.182,2.313,1.247c1.941,0.14,5.459-0.183,8.349-3.602c0.178-0.21,1.043-0.752,1.812-0.664
		c1.029,0.119,2.51,0.548,3.805,1.906c0,0,4.118,4.068,4.563,1.887"/>
	<path fill="none" stroke="#666666" stroke-linecap="round" stroke-linejoin="round" d="M70.22,42.448c0,0,6.254-1.178,8.92,1.327
		c0,0,1.938,4.94,7.19-0.802c0,0,2.586-2.001,4.121-0.802"/>
</g>
<g>
	<polygon fill="none" stroke="#666666" stroke-linecap="round" stroke-linejoin="round" points="121.515,116.748 121.515,127.935 
		136.155,133.788 158.391,128.902 158.391,117.853 136.648,121.871 	"/>
	<polyline fill="none" stroke="#666666" stroke-linecap="round" stroke-linejoin="round" points="121.515,116.748 115.975,106.294 
		129.808,109.794 136.648,121.871 136.648,133.68 	"/>
	<polyline fill="none" stroke="#666666" stroke-linecap="round" stroke-linejoin="round" points="136.648,121.544 140.392,111.127 
		163.142,109.288 158.391,117.853 	"/>
	<polyline fill="none" stroke="#666666" stroke-linecap="round" stroke-linejoin="round" points="158.495,117.666 167.642,109.794 
		157.059,104.627 151.642,109.711 	"/>
	<polyline fill="none" stroke="#666666" stroke-linecap="round" stroke-linejoin="round" points="119.642,106.711 149.895,103.711 
		151.083,110.263 	"/>
	<polygon fill="none" stroke="#666666" stroke-linecap="round" stroke-linejoin="round" points="166.46,89.88 169.813,90.309 
		167.433,92.708 168.061,96.029 165.043,94.507 162.08,96.131 162.595,92.791 160.135,90.473 163.47,89.931 164.915,86.876 	"/>
	<polygon fill="none" stroke="#666666" stroke-width="0.5669" stroke-linecap="round" stroke-linejoin="round" points="
		116.711,89.194 117.388,89.099 117.053,89.694 117.353,90.309 116.683,90.173 116.191,90.649 116.113,89.969 115.509,89.649 
		116.13,89.365 116.249,88.691 	"/>
	<polygon fill="none" stroke="#666666" stroke-width="0.5669" stroke-linecap="round" stroke-linejoin="round" points="
		128.251,87.778 128.992,87.674 128.625,88.325 128.953,88.997 128.221,88.848 127.683,89.369 127.597,88.625 126.937,88.275 
		127.616,87.964 127.746,87.227 	"/>
	<polygon fill="none" stroke="#666666" stroke-width="0.5669" stroke-linecap="round" stroke-linejoin="round" points="
		147.696,87.889 148.199,88.443 147.454,88.506 147.083,89.155 146.794,88.466 146.061,88.315 146.627,87.825 146.545,87.083 
		147.184,87.469 147.867,87.161 	"/>
	<polygon fill="none" stroke="#666666" stroke-width="0.5669" stroke-linecap="round" stroke-linejoin="round" points="
		160.135,90.473 160.638,91.027 159.893,91.09 159.522,91.739 159.233,91.05 158.5,90.899 159.066,90.409 158.984,89.667 
		159.623,90.053 160.306,89.745 	"/>
	<polygon fill="none" stroke="#666666" stroke-width="0.5669" stroke-linecap="round" stroke-linejoin="round" points="
		159.065,93.886 159.568,94.44 158.824,94.502 158.453,95.152 158.164,94.463 157.43,94.312 157.997,93.822 157.915,93.079 
		158.554,93.466 159.236,93.158 	"/>
	<polygon fill="none" stroke="#666666" stroke-width="0.5669" stroke-linecap="round" stroke-linejoin="round" points="
		157.281,97.665 157.784,98.219 157.039,98.281 156.668,98.931 156.379,98.242 155.646,98.09 156.212,97.601 156.13,96.858 
		156.769,97.245 157.452,96.937 	"/>
	<polygon fill="none" stroke="#666666" stroke-width="0.5669" stroke-linecap="round" stroke-linejoin="round" points="
		155.864,100.512 156.367,101.066 155.622,101.128 155.251,101.778 154.962,101.089 154.229,100.938 154.795,100.448 
		154.713,99.705 155.352,100.092 156.035,99.784 	"/>
	<polygon fill="none" stroke="#666666" stroke-width="0.5669" stroke-linecap="round" stroke-linejoin="round" points="
		154.794,104.067 155.297,104.621 154.553,104.684 154.182,105.333 153.893,104.644 153.159,104.493 153.726,104.003 
		153.644,103.26 154.283,103.647 154.965,103.339 	"/>
	<polygon fill="none" stroke="#666666" stroke-width="0.2835" stroke-linecap="round" stroke-linejoin="round" points="
		153.585,107.056 153.963,107.473 153.403,107.52 153.124,108.009 152.906,107.49 152.354,107.376 152.781,107.008 152.719,106.449 
		153.2,106.74 153.714,106.508 	"/>
	<polygon fill="none" stroke="#666666" stroke-width="0.5669" stroke-linecap="round" stroke-linejoin="round" points="
		146.627,92.879 147.13,93.433 146.385,93.496 146.014,94.145 145.725,93.456 144.992,93.305 145.558,92.815 145.476,92.072 
		146.115,92.459 146.798,92.151 	"/>
	<polygon fill="none" stroke="#666666" stroke-width="0.5669" stroke-linecap="round" stroke-linejoin="round" points="
		145.558,96.628 146.061,97.182 145.316,97.245 144.945,97.894 144.656,97.205 143.922,97.054 144.489,96.564 144.407,95.821 
		145.046,96.208 145.729,95.9 	"/>
	<polygon fill="none" stroke="#666666" stroke-width="0.5669" stroke-linecap="round" stroke-linejoin="round" points="
		144.957,100.512 145.459,101.066 144.715,101.128 144.344,101.778 144.055,101.089 143.321,100.938 143.888,100.448 
		143.806,99.705 144.445,100.092 145.127,99.784 	"/>
	<polygon fill="none" stroke="#666666" stroke-width="0.5669" stroke-linecap="round" stroke-linejoin="round" points="
		144.72,103.543 145.04,103.896 144.566,103.935 144.331,104.348 144.147,103.91 143.681,103.813 144.041,103.502 143.989,103.031 
		144.395,103.276 144.829,103.081 	"/>
	<polygon fill="none" stroke="#666666" stroke-width="0.2835" stroke-linecap="round" stroke-linejoin="round" points="
		144.041,107.083 144.36,107.436 143.887,107.475 143.651,107.888 143.468,107.45 143.002,107.354 143.362,107.042 143.31,106.571 
		143.716,106.816 144.149,106.621 	"/>
	<polygon fill="none" stroke="#666666" stroke-width="0.5669" stroke-linecap="round" stroke-linejoin="round" points="
		118.342,93.003 119.063,92.943 118.731,93.498 119.081,94.101 118.357,93.94 117.853,94.373 117.737,93.718 117.075,93.383 
		117.728,93.14 117.823,92.499 	"/>
	<polygon fill="none" stroke="#666666" stroke-width="0.5669" stroke-linecap="round" stroke-linejoin="round" points="
		129.368,92.643 130.143,92.578 129.786,93.175 130.163,93.823 129.385,93.65 128.842,94.116 128.717,93.411 128.006,93.052 
		128.708,92.79 128.811,92.101 	"/>
	<polygon fill="none" stroke="#666666" stroke-width="0.5669" stroke-linecap="round" stroke-linejoin="round" points="
		120.348,97.362 121.069,97.302 120.737,97.857 121.087,98.459 120.363,98.299 119.858,98.732 119.743,98.077 119.081,97.742 
		119.734,97.499 119.829,96.858 	"/>
	<polygon fill="none" stroke="#666666" stroke-width="0.5669" stroke-linecap="round" stroke-linejoin="round" points="
		130.426,96.976 131.147,96.916 130.815,97.471 131.166,98.073 130.442,97.913 129.937,98.346 129.821,97.69 129.16,97.356 
		129.813,97.112 129.908,96.472 	"/>
	<polygon fill="none" stroke="#666666" stroke-width="0.5669" stroke-linecap="round" stroke-linejoin="round" points="
		131.429,100.84 132.15,100.78 131.818,101.335 132.168,101.938 131.445,101.777 130.94,102.21 130.824,101.555 130.163,101.22 
		130.815,100.977 130.911,100.336 	"/>
	<polygon fill="none" stroke="#666666" stroke-width="0.5669" stroke-linecap="round" stroke-linejoin="round" points="
		132.432,103.863 133.153,103.803 132.821,104.358 133.171,104.961 132.448,104.8 131.943,105.233 131.827,104.578 131.166,104.244 
		131.818,104 131.914,103.359 	"/>
	<polygon fill="none" stroke="#666666" stroke-width="0.2835" stroke-linecap="round" stroke-linejoin="round" points="
		133.354,108.392 133.771,108.356 133.579,108.678 133.781,109.026 133.362,108.934 133.07,109.184 133.003,108.805 
		132.621,108.611 132.998,108.471 133.053,108.1 	"/>
	<polygon fill="none" stroke="#666666" stroke-width="0.5669" stroke-linecap="round" stroke-linejoin="round" points="
		122.075,101.245 122.796,101.185 122.464,101.74 122.814,102.343 122.09,102.182 121.585,102.615 121.47,101.96 120.808,101.625 
		121.461,101.382 121.556,100.741 	"/>
	<polygon fill="none" stroke="#666666" stroke-width="0.5669" stroke-linecap="round" stroke-linejoin="round" points="
		123.747,104.8 124.468,104.74 124.136,105.295 124.486,105.898 123.762,105.737 123.257,106.17 123.142,105.515 122.48,105.181 
		123.133,104.937 123.228,104.296 	"/>
	<polygon fill="none" stroke="#666666" stroke-linecap="round" stroke-linejoin="round" points="175.723,97.733 179.075,98.163 
		176.695,100.562 177.323,103.882 174.306,102.36 171.342,103.984 171.857,100.644 169.397,98.327 172.732,97.784 174.177,94.729 	
		"/>
	<polygon fill="none" stroke="#666666" stroke-linecap="round" stroke-linejoin="round" points="183.036,107.3 186.388,107.729 
		184.009,110.129 184.636,113.449 181.619,111.927 178.656,113.551 179.17,110.211 176.71,107.894 180.046,107.351 181.49,104.296 	
		"/>
	<polygon fill="none" stroke="#666666" stroke-linecap="round" stroke-linejoin="round" points="175.723,117.607 179.075,118.036 
		176.695,120.436 177.323,123.756 174.306,122.234 171.342,123.858 171.857,120.518 169.397,118.2 172.732,117.658 174.177,114.603 
			"/>
	<polygon fill="none" stroke="#666666" stroke-linecap="round" stroke-linejoin="round" points="166.79,125.291 170.142,125.72 
		167.763,128.119 168.39,131.439 165.373,129.917 162.41,131.542 162.924,128.201 160.464,125.884 163.8,125.341 165.244,122.287 	
		"/>
</g>
</svg>
